<svg xmlns="http://www.w3.org/2000/svg" xmlns:oryx="http://oryx-editor.org" id="_C5BD4A7E-8C21-463D-BB77-221BEBA6C14C" width="598.7833251953125" height="271" xmlns:xlink="http://www.w3.org/1999/xlink" xmlns:svg="http://www.w3.org/2000/svg"><defs><marker id="_4C79E947-65A4-4747-AE21-F4223E825856start" refX="1" refY="5" markerUnits="userSpaceOnUse" markerWidth="17" markerHeight="11" orient="auto" fill="#000000" stroke="#000000"> 	  		<path id="_4C79E947-65A4-4747-AE21-F4223E825856conditional" d="M 0 5 L 8 0 L 16 5 L 8 10 L 0 5" fill="white" stroke="#000000" stroke-width="1" display="none"/> 			<path id="_4C79E947-65A4-4747-AE21-F4223E825856default" d="M 5 0 L 11 10" fill="white" stroke="#000000" stroke-width="1" display="none"/> 	  	</marker><marker id="_4C79E947-65A4-4747-AE21-F4223E825856end" refX="15" refY="6" markerUnits="userSpaceOnUse" markerWidth="15" markerHeight="12" orient="auto" fill="#000000" stroke="#000000"> 	  		<path id="_4C79E947-65A4-4747-AE21-F4223E825856frame2" d="M 0 1 L 15 6 L 0 11z" fill="#000000" stroke="#000000" stroke-linejoin="round" stroke-width="2"/> 	  	</marker><marker id="_137DD92E-8276-4998-A579-74B6BD912A51start" refX="1" refY="5" markerUnits="userSpaceOnUse" markerWidth="17" markerHeight="11" orient="auto" fill="#000000" stroke="#000000"> 	  		<path id="_137DD92E-8276-4998-A579-74B6BD912A51conditional" d="M 0 5 L 8 0 L 16 5 L 8 10 L 0 5" fill="white" stroke="#000000" stroke-width="1" display="none"/> 			<path id="_137DD92E-8276-4998-A579-74B6BD912A51default" d="M 5 0 L 11 10" fill="white" stroke="#000000" stroke-width="1" display="none"/> 	  	</marker><marker id="_137DD92E-8276-4998-A579-74B6BD912A51end" refX="15" refY="6" markerUnits="userSpaceOnUse" markerWidth="15" markerHeight="12" orient="auto" fill="#000000" stroke="#000000"> 	  		<path id="_137DD92E-8276-4998-A579-74B6BD912A51frame2" d="M 0 1 L 15 6 L 0 11z" fill="#000000" stroke="#000000" stroke-linejoin="round" stroke-width="2"/> 	  	</marker></defs><g stroke="none" font-family="Verdana, sans-serif" font-size-adjust="none" font-style="normal" font-variant="normal" font-weight="normal" line-heigth="normal" font-size="12"><g class="stencils" transform="translate(15.5, 16)"><g class="me"/><g class="children"><g id="_D863D6A5-F691-4505-B3E9-A45F0D8A309A" bpmn2nodeid="processStartEvent"><g class="stencils" transform="translate(135, 175)"><g class="me"><g pointer-events="fill" id="_D863D6A5-F691-4505-B3E9-A45F0D8A309A">        <defs id="_D863D6A5-F691-4505-B3E9-A45F0D8A309A__D863D6A5-F691-4505-B3E9-A45F0D8A309A_5"> 		<radialGradient id="_D863D6A5-F691-4505-B3E9-A45F0D8A309Abackground" cx="10%" cy="10%" r="100%" fx="10%" fy="10%"> 			<stop offset="0%" stop-color="#ffffff" stop-opacity="1" id="_D863D6A5-F691-4505-B3E9-A45F0D8A309A__D863D6A5-F691-4505-B3E9-A45F0D8A309A_6"/> 			<stop id="_D863D6A5-F691-4505-B3E9-A45F0D8A309Afill_el" offset="100%" stop-color="#9acd32" stop-opacity="1"/> 		</radialGradient> 	</defs> 	     <circle id="_D863D6A5-F691-4505-B3E9-A45F0D8A309Abg_frame" cx="15" cy="15" r="15" stroke="#000000" fill="url(#_D863D6A5-F691-4505-B3E9-A45F0D8A309Abackground) white" stroke-width="1" style="stroke-dasharray: 5.5, 3"/>      <circle id="_D863D6A5-F691-4505-B3E9-A45F0D8A309Aframe" cx="15" cy="15" r="15" stroke="#000000" fill="none" stroke-width="1" display="inherit"/>  	<text font-size="11" id="_D863D6A5-F691-4505-B3E9-A45F0D8A309Atext_name" x="15" y="32" oryx:align="top center" stroke="black" stroke-width="0pt" letter-spacing="-0.01px" fill="#000000" text-anchor="middle" transform="rotate(0 15 32)" visibility="inherit" oryx:fontSize="11"/>   </g></g><g class="children" style="overflow:hidden"/><g class="edge"/></g><g class="controls"><g class="dockers"/><g class="magnets" transform="translate(135, 175)"><g pointer-events="all" display="none" transform="translate(7, 7)"><circle cx="8" cy="8" r="4" stroke="none" fill="red" fill-opacity="0.3"/></g></g></g></g><g id="_935E71D1-5371-4713-8C2D-16D2F73DFD6F" bpmn2nodeid="_DEC71D49-25CA-46C7-A3FA-C3633DFB3ECA"><g class="stencils" transform="translate(465, 176)"><g class="me"><g pointer-events="fill" id="_935E71D1-5371-4713-8C2D-16D2F73DFD6F">      <defs id="_935E71D1-5371-4713-8C2D-16D2F73DFD6F__935E71D1-5371-4713-8C2D-16D2F73DFD6F_5"> 		<radialGradient id="_935E71D1-5371-4713-8C2D-16D2F73DFD6Fbackground" cx="10%" cy="10%" r="100%" fx="10%" fy="10%"> 			<stop offset="0%" stop-color="#ffffff" stop-opacity="1" id="_935E71D1-5371-4713-8C2D-16D2F73DFD6F__935E71D1-5371-4713-8C2D-16D2F73DFD6F_6"/> 			<stop id="_935E71D1-5371-4713-8C2D-16D2F73DFD6Ffill_el" offset="100%" stop-color="#ff6347" stop-opacity="1"/> 		</radialGradient> 	</defs> 	     <circle id="_935E71D1-5371-4713-8C2D-16D2F73DFD6Fbg_frame" cx="14" cy="14" r="14" stroke="#000000" fill="url(#_935E71D1-5371-4713-8C2D-16D2F73DFD6Fbackground) white" stroke-width="3"/> 	<text font-size="11" id="_935E71D1-5371-4713-8C2D-16D2F73DFD6Ftext_name" x="14" y="30" oryx:align="top center" stroke="black" stroke-width="0pt" letter-spacing="-0.01px" fill="#000000" text-anchor="middle" transform="rotate(0 14 30)" visibility="inherit" oryx:fontSize="11"/>   </g></g><g class="children" style="overflow:hidden"/><g class="edge"/></g><g class="controls"><g class="dockers"/><g class="magnets" transform="translate(465, 176)"><g pointer-events="all" display="none" transform="translate(6, 6)"><circle cx="8" cy="8" r="4" stroke="none" fill="red" fill-opacity="0.3"/></g></g></g></g><g id="_A5453C1C-3099-4BBB-9249-2D66A6638583" bpmn2nodeid="_BBEB9160-AC1A-488F-A37E-C3917D8DB21F"><g class="stencils" transform="translate(255, 150)"><g class="me"><g pointer-events="fill" oryx:minimumSize="50 40" id="_A5453C1C-3099-4BBB-9249-2D66A6638583">   	<defs id="_A5453C1C-3099-4BBB-9249-2D66A6638583__A5453C1C-3099-4BBB-9249-2D66A6638583_17"> 		<radialGradient id="_A5453C1C-3099-4BBB-9249-2D66A6638583background" cx="10%" cy="10%" r="100%" fx="10%" fy="10%"> 			<stop offset="0%" stop-color="#ffffff" stop-opacity="1" id="_A5453C1C-3099-4BBB-9249-2D66A6638583__A5453C1C-3099-4BBB-9249-2D66A6638583_18"/> 			<stop id="_A5453C1C-3099-4BBB-9249-2D66A6638583fill_el" offset="100%" stop-color="#fafad2" stop-opacity="1"/> 		</radialGradient> 		<radialGradient id="_A5453C1C-3099-4BBB-9249-2D66A6638583borderbackground" cx="10%" cy="10%" r="100%" fx="10%" fy="10%"> 			<stop offset="0%" stop-color="#ffffff" stop-opacity="1" id="_A5453C1C-3099-4BBB-9249-2D66A6638583__A5453C1C-3099-4BBB-9249-2D66A6638583_19"/> 			<stop id="_A5453C1C-3099-4BBB-9249-2D66A6638583fill_border" offset="100%" stop-color="#000000" stop-opacity="1" stroke="#000000"/> 		</radialGradient> 	</defs> 	 	<rect id="_A5453C1C-3099-4BBB-9249-2D66A6638583text_frame" oryx:anchors="bottom top right left" x="1" y="1" width="111" height="79" rx="10" ry="10" stroke="none" stroke-width="0" fill="none"/> 	<rect id="_A5453C1C-3099-4BBB-9249-2D66A6638583bg_frame" oryx:resize="vertical horizontal" x="0" y="0" width="117" height="80" rx="10" ry="10" stroke="#000000" stroke-width="1" fill="url(#_A5453C1C-3099-4BBB-9249-2D66A6638583background) #ffffcc"/> 		<text font-size="12" id="_A5453C1C-3099-4BBB-9249-2D66A6638583text_name" x="58.5" y="40" oryx:align="middle center" oryx:fittoelem="text_frame" stroke="black" text-anchor="middle" stroke-width="0pt" letter-spacing="-0.01px" fill="#000000" transform="rotate(0 58.5 40)" visibility="inherit" oryx:fontSize="12"><tspan x="58.5" y="40" dy="-1">Send Email with </tspan><tspan x="58.5" y="40" dy="11">Application Link</tspan></text>     <g id="_A5453C1C-3099-4BBB-9249-2D66A6638583manualTask" transform="scale(0.7,0.7) translate(8,8)" display="none">     	<path oryx:anchors="top left" id="_A5453C1C-3099-4BBB-9249-2D66A6638583frame" style="opacity:1;fill:none;fill-opacity:1;stroke-width:1" d="M0.5,3.751l4.083-3.25c0,0,11.166,0.083,12.083,0.083s-2.417,2.917-1.5,2.917     s11.667,0,12.584,0c1.166,1.708-0.168,3.167-0.834,3.667s0.875,1.917-1,4.417c-0.75,0.25,0.75,1.875-1.333,3.333     c-1.167,0.583,0.583,1.542-1.25,2.833c-1.167,0-20.833,0.083-20.833,0.083l-2-1.333V3.751z" stroke="#000000"/> 		<path id="_A5453C1C-3099-4BBB-9249-2D66A6638583frame2" oryx:anchors="top left" style="opacity:1;fill:none;stroke-width:2" d="M 13.5 7 L 27 7" stroke="#000000"/> 		<path id="_A5453C1C-3099-4BBB-9249-2D66A6638583frame3" oryx:anchors="top left" style="opacity:1;fill:none;stroke-width:2" d="M 13.5 11 L 26 11" stroke="#000000"/> 		<path id="_A5453C1C-3099-4BBB-9249-2D66A6638583frame4" oryx:anchors="top left" style="opacity:1;fill:none;stroke-width:1.5" d="M 14 14.5 L 25 14.5" stroke="#000000"/> 		<path id="_A5453C1C-3099-4BBB-9249-2D66A6638583frame5" oryx:anchors="top left" style="opacity:1;fill:none;stroke-width:1.5" d="M 8.2 3.1 L 15 3.1" stroke="#000000"/> 	</g> 	 	<g id="_A5453C1C-3099-4BBB-9249-2D66A6638583businessRuleTask" transform="scale(0.7,0.7) translate(8,8)" display="none"> 		<rect id="_A5453C1C-3099-4BBB-9249-2D66A6638583frame6" oryx:anchors="top left" x="0" y="0" width="22" height="4" style="opacity:1;fill:#B3B1B3;fill-opacity:1;" stroke="#000000"/> 		<rect id="_A5453C1C-3099-4BBB-9249-2D66A6638583frame7" oryx:anchors="top left" x="0" y="4" style="opacity:1;fill:none;" width="22" height="12" stroke="#000000"/> 		<path id="_A5453C1C-3099-4BBB-9249-2D66A6638583frame8" oryx:anchors="top left" style="opacity:1;fill:none;" d="M 0 10 L 22 10" stroke="#000000"/> 		<path id="_A5453C1C-3099-4BBB-9249-2D66A6638583frame9" oryx:anchors="top left" style="opacity:1; fill:none;" d="M 7 4 L 7 16" stroke="#000000"/> 	</g> 	 	<g id="_A5453C1C-3099-4BBB-9249-2D66A6638583scriptTask" transform="scale(0.7,0.7) translate(8,8)" display="none"> 		<path oryx:anchors="top left" id="_A5453C1C-3099-4BBB-9249-2D66A6638583frame10" style="opacity:1;fill:none;" stroke="#000000" d="M6.402,0.5h14.5c0,0-5.833,2.833-5.833,5.583s4.417,6,4.417,9.167    s-4.167,5.083-4.167,5.083H0.235c0,0,5-2.667,5-5s-4.583-6.75-4.583-9.25S6.402,0.5,6.402,0.5z"/> 		<path oryx:anchors="top left" id="_A5453C1C-3099-4BBB-9249-2D66A6638583frame11" style="opacity:1;fill:none;stroke-width:1.5" d="M 3.5 4.5 L 13.5 4.5" stroke="#000000"/> 		<path oryx:anchors="top left" id="_A5453C1C-3099-4BBB-9249-2D66A6638583frame12" style="opacity:1;fill:none;stroke-width:1.5" d="M 3.8 8.5 L 13.8 8.5" stroke="#000000"/> 		<path oryx:anchors="top left" id="_A5453C1C-3099-4BBB-9249-2D66A6638583frame13" style="opacity:1;fill:none;stroke-width:1.5" d="M 6.3 12.5 L 16.3 12.5" stroke="#000000"/> 		<path oryx:anchors="top left" id="_A5453C1C-3099-4BBB-9249-2D66A6638583frame14" style="opacity:1;fill:none;stroke-width:1.5" d="M 6.5 16.5 L 16.5 16.5" stroke="#000000"/> 	</g> 	 	<g id="_A5453C1C-3099-4BBB-9249-2D66A6638583userTask" transform="scale(0.7,0.7) translate(8,8)" display="none"> 		<path id="_A5453C1C-3099-4BBB-9249-2D66A6638583frame15" oryx:anchors="top left" style="opacity:1;fill:#F4F6F7" stroke="#000000" d="M0.585,24.167h24.083v-7.833c0,0-2.333-3.917-7.083-5.167h-9.25    c-4.417,1.333-7.833,5.75-7.833,5.75L0.585,24.167z"/> 		<path id="_A5453C1C-3099-4BBB-9249-2D66A6638583frame16" oryx:anchors="top left" style="opacity:1;fill:none" d="M 6 20 L 6 24" stroke="#000000"/> 		<path id="_A5453C1C-3099-4BBB-9249-2D66A6638583frame17" oryx:anchors="top left" style="opacity:1;fill:none" d="M 20 20 L 20 24" stroke="#000000"/> 		<circle id="_A5453C1C-3099-4BBB-9249-2D66A6638583frame18" oryx:anchors="top left" fill="black" cx="13.002" cy="5.916" r="5.417" stroke="#000000"/> 		<path id="_A5453C1C-3099-4BBB-9249-2D66A6638583frame19" oryx:anchors="top left" style="opacity:1;fill:#F0EFF0;" stroke="#000000" d="M8.043,7.083c0,0,2.814-2.426,5.376-1.807s4.624-0.693,4.624-0.693    c0.25,1.688,0.042,3.75-1.458,5.584c0,0,1.083,0.75,1.083,1.5s0.125,1.875-1,3s-5.5,1.25-6.75,0S8.668,12.834,8.668,12    s0.583-1.25,1.25-1.917C8.835,9.5,7.419,7.708,8.043,7.083z"/> 	</g> 	 	<g id="_A5453C1C-3099-4BBB-9249-2D66A6638583serviceTask" transform="scale(0.7,0.7) translate(8,8)" display="none"> 		<polygon oryx:anchors="top left" id="_A5453C1C-3099-4BBB-9249-2D66A6638583frame20" style="opacity:1;fill:#ffffff" stroke="#000000" points="15.392,5.064 17.954,2.502 20.347,4.895 17.786,7.455     18.729,9.732 22.353,9.732 22.353,13.115 18.731,13.115 17.788,15.392 20.351,17.955 17.958,20.347 15.397,17.786 13.12,18.729     13.12,22.353 9.737,22.353 9.737,18.731 7.46,17.788 4.897,20.35 2.506,17.958 5.066,15.397 4.124,13.12 0.5,13.12 0.5,9.737     4.121,9.737 5.065,7.461 2.503,4.898 4.895,2.506 7.455,5.066 9.732,4.125 9.732,0.5 13.116,0.5 13.116,4.121 "/> 		<circle oryx:anchors="top left" id="_A5453C1C-3099-4BBB-9249-2D66A6638583frame21" style="opacity:1;fill:none" stroke="#000000" cx="11.427" cy="11.426" r="3.714"/> 		<polygon oryx:anchors="top left" id="_A5453C1C-3099-4BBB-9249-2D66A6638583frame22" style="opacity:1;fill:#ffffff" stroke="#000000" points="21.392,11.064 23.954,8.502 26.347,10.895 23.786,13.455     24.729,15.732 28.353,15.732 28.353,19.115 24.731,19.115 23.788,21.392 26.351,23.955 23.958,26.347 21.397,23.786 19.12,24.729     19.12,28.353 15.737,28.353 15.737,24.731 13.46,23.788 10.897,26.35 8.506,23.958 11.066,21.397 10.124,19.12 6.5,19.12     6.5,15.737 10.121,15.737 11.065,13.461 8.503,10.898 10.895,8.506 13.455,11.066 15.732,10.125 15.732,6.5 19.116,6.5     19.116,10.121 "/> 		<circle oryx:anchors="top left" id="_A5453C1C-3099-4BBB-9249-2D66A6638583frame23" style="opacity:1;fill:none;" stroke="#000000" cx="17.427" cy="17.426" r="3.714"/> 	</g> 	 	<g id="_A5453C1C-3099-4BBB-9249-2D66A6638583sendTask" display="none"> 		<path id="_A5453C1C-3099-4BBB-9249-2D66A6638583stframe24" oryx:anchors="left top" stroke="#FFFFFF" fill="black" stroke-width="1" d="M8,11 L8,21 L24,21 L24,11 L16,17z"/> 		<path id="_A5453C1C-3099-4BBB-9249-2D66A6638583stframe25" oryx:anchors="left top" stroke="#FFFFFF" fill="black" stroke-width="1" d="M7,10 L16,17 L25 10z"/> 	</g> 	 	<g id="_A5453C1C-3099-4BBB-9249-2D66A6638583receiveTask" display="none"> 		<path id="_A5453C1C-3099-4BBB-9249-2D66A6638583frame26" oryx:anchors="left top" stroke="#000000" fill="none" stroke-width="1" d="M8,11 L8,21 L24,21 L24,11z M8,11 L16,17 L24,11"/> 	</g> 	 	<g id="_A5453C1C-3099-4BBB-9249-2D66A6638583none" display="inherit"/>  	<g id="_A5453C1C-3099-4BBB-9249-2D66A6638583sequential" display="none">         <path oryx:anchors="bottom" fill="none" stroke="#000000" stroke-width="2" d=" M54.669999999999995 76  h10  M54.669999999999995 72  h10  M54.669999999999995 68  h10 " id="_A5453C1C-3099-4BBB-9249-2D66A6638583__A5453C1C-3099-4BBB-9249-2D66A6638583_20"/>     </g>   </g></g><g class="children" style="overflow:hidden"/><g class="edge"/></g><g class="controls"><g class="dockers"/><g class="magnets" transform="translate(255, 150)"><g pointer-events="all" display="none" transform="translate(-7, 12)"><circle cx="8" cy="8" r="4" stroke="none" fill="red" fill-opacity="0.3"/></g><g pointer-events="all" display="none" transform="translate(-7, 32)"><circle cx="8" cy="8" r="4" stroke="none" fill="red" fill-opacity="0.3"/></g><g pointer-events="all" display="none" transform="translate(-7, 52)"><circle cx="8" cy="8" r="4" stroke="none" fill="red" fill-opacity="0.3"/></g><g pointer-events="all" display="none" transform="translate(21.25, 71)"><circle cx="8" cy="8" r="4" stroke="none" fill="red" fill-opacity="0.3"/></g><g pointer-events="all" display="none" transform="translate(50.5, 71)"><circle cx="8" cy="8" r="4" stroke="none" fill="red" fill-opacity="0.3"/></g><g pointer-events="all" display="none" transform="translate(79.75, 71)"><circle cx="8" cy="8" r="4" stroke="none" fill="red" fill-opacity="0.3"/></g><g pointer-events="all" display="none" transform="translate(108, 12)"><circle cx="8" cy="8" r="4" stroke="none" fill="red" fill-opacity="0.3"/></g><g pointer-events="all" display="none" transform="translate(108, 32)"><circle cx="8" cy="8" r="4" stroke="none" fill="red" fill-opacity="0.3"/></g><g pointer-events="all" display="none" transform="translate(108, 52)"><circle cx="8" cy="8" r="4" stroke="none" fill="red" fill-opacity="0.3"/></g><g pointer-events="all" display="none" transform="translate(21.25, -7)"><circle cx="8" cy="8" r="4" stroke="none" fill="red" fill-opacity="0.3"/></g><g pointer-events="all" display="none" transform="translate(50.5, -7)"><circle cx="8" cy="8" r="4" stroke="none" fill="red" fill-opacity="0.3"/></g><g pointer-events="all" display="none" transform="translate(79.75, -7)"><circle cx="8" cy="8" r="4" stroke="none" fill="red" fill-opacity="0.3"/></g><g pointer-events="all" display="none" transform="translate(50.5, 32)"><circle cx="8" cy="8" r="4" stroke="none" fill="red" fill-opacity="0.3"/></g></g></g></g></g><g class="edge"><g id="_4C79E947-65A4-4747-AE21-F4223E825856" bpmn2nodeid="_23B91B41-02FA-42F6-BEA5-ADCC8BC47631"><g class="stencils"><g class="me"><g pointer-events="painted" bpmn2nodeid="_7A89C735-72BA-462D-9455-B7FE2B370DB3"><path id="_4C79E947-65A4-4747-AE21-F4223E825856_1" d="M165.05078125 190L254.380859375 190 " stroke="#000000" fill="none" stroke-width="2" stroke-linecap="round" stroke-linejoin="round" marker-start="url(#_4C79E947-65A4-4747-AE21-F4223E825856start)" marker-end="url(#_4C79E947-65A4-4747-AE21-F4223E825856end)"/></g><text id="_4C79E947-65A4-4747-AE21-F4223E825856text_name" font-size="12" x="179.05078125" y="176" oryx:edgePosition="startTop" stroke-width="0pt" letter-spacing="-0.01px" fill="#000000" text-anchor="start" transform="rotate(360 165.05078125 190)" visibility="inherit" oryx:fontSize="12"/></g><g class="children" style="overflow:hidden"/><g class="edge"/></g><g class="controls"><g class="dockers"/><g class="magnets"/></g></g><g id="_137DD92E-8276-4998-A579-74B6BD912A51" bpmn2nodeid="_6E00AE40-62AE-465D-9C38-269DCD194E33"><g class="stencils"><g class="me"><g pointer-events="painted" bpmn2nodeid="_012A87C0-C45A-4EEA-A174-84ABD87F45DC"><path id="_137DD92E-8276-4998-A579-74B6BD912A51_1" d="M372.68359375 190L464.423828125 190 " stroke="#000000" fill="none" stroke-width="2" stroke-linecap="round" stroke-linejoin="round" marker-start="url(#_137DD92E-8276-4998-A579-74B6BD912A51start)" marker-end="url(#_137DD92E-8276-4998-A579-74B6BD912A51end)"/></g><text id="_137DD92E-8276-4998-A579-74B6BD912A51text_name" font-size="12" x="386.68359375" y="176" oryx:edgePosition="startTop" stroke-width="0pt" letter-spacing="-0.01px" fill="#000000" text-anchor="start" transform="rotate(360 372.68359375 190)" visibility="inherit" oryx:fontSize="12"/></g><g class="children" style="overflow:hidden"/><g class="edge"/></g><g class="controls"><g class="dockers"/><g class="magnets"/></g></g></g><text id="_1D7914BE-A5B3-4C27-B4DA-B0BDDAABF435" style="stroke-width:1;fill:rgb(177,194,214);font-family:arial;font-weight:bold" font-size="12" onclick="ORYX.Plugins.CanvasTitle.openTextualAnalysis()" onmouseover="ORYX.Plugins.CanvasTitle.addToolTip('_1D7914BE-A5B3-4C27-B4DA-B0BDDAABF435')" transform="translate(10, 20)">SendApplicationLinkProcess v.1.0 (commercial-client-onboarding.SendApplicationLinkProcess)</text></g></g></svg>