<svg xmlns="http://www.w3.org/2000/svg" xmlns:oryx="http://oryx-editor.org" id="_7461218E-CB57-4301-9970-0B460B7AFD60" width="630.5" height="266" xmlns:xlink="http://www.w3.org/1999/xlink" xmlns:svg="http://www.w3.org/2000/svg"><defs><marker id="_DC3BB9C9-545F-425B-8AF6-57ADD413108Dstart" refX="1" refY="5" markerUnits="userSpaceOnUse" markerWidth="17" markerHeight="11" orient="auto" fill="#000000" stroke="#000000"> 	  		<path id="_DC3BB9C9-545F-425B-8AF6-57ADD413108Dconditional" d="M 0 5 L 8 0 L 16 5 L 8 10 L 0 5" fill="white" stroke="#000000" stroke-width="1" display="none"/> 			<path id="_DC3BB9C9-545F-425B-8AF6-57ADD413108Ddefault" d="M 5 0 L 11 10" fill="white" stroke="#000000" stroke-width="1" display="none"/> 	  	</marker><marker id="_DC3BB9C9-545F-425B-8AF6-57ADD413108Dend" refX="15" refY="6" markerUnits="userSpaceOnUse" markerWidth="15" markerHeight="12" orient="auto" fill="#000000" stroke="#000000"> 	  		<path id="_DC3BB9C9-545F-425B-8AF6-57ADD413108Dframe2" d="M 0 1 L 15 6 L 0 11z" fill="#000000" stroke="#000000" stroke-linejoin="round" stroke-width="2"/> 	  	</marker><marker id="_B5425ACE-AD6D-4DB8-B799-46E29FCADECFstart" refX="1" refY="5" markerUnits="userSpaceOnUse" markerWidth="17" markerHeight="11" orient="auto" fill="#000000" stroke="#000000"> 	  		<path id="_B5425ACE-AD6D-4DB8-B799-46E29FCADECFconditional" d="M 0 5 L 8 0 L 16 5 L 8 10 L 0 5" fill="white" stroke="#000000" stroke-width="1" display="none"/> 			<path id="_B5425ACE-AD6D-4DB8-B799-46E29FCADECFdefault" d="M 5 0 L 11 10" fill="white" stroke="#000000" stroke-width="1" display="none"/> 	  	</marker><marker id="_B5425ACE-AD6D-4DB8-B799-46E29FCADECFend" refX="15" refY="6" markerUnits="userSpaceOnUse" markerWidth="15" markerHeight="12" orient="auto" fill="#000000" stroke="#000000"> 	  		<path id="_B5425ACE-AD6D-4DB8-B799-46E29FCADECFframe2" d="M 0 1 L 15 6 L 0 11z" fill="#000000" stroke="#000000" stroke-linejoin="round" stroke-width="2"/> 	  	</marker></defs><g stroke="none" font-family="Verdana, sans-serif" font-size-adjust="none" font-style="normal" font-variant="normal" font-weight="normal" line-heigth="normal" font-size="12"><g class="stencils" transform="translate(15.5, 16)"><g class="me"/><g class="children"><g id="_C8785A11-7035-41DA-8172-73E88A4EABAC" bpmn2nodeid="processStartEvent"><g class="stencils" transform="translate(120, 165)"><g class="me"><g pointer-events="fill" id="_C8785A11-7035-41DA-8172-73E88A4EABAC">        <defs id="_C8785A11-7035-41DA-8172-73E88A4EABAC__C8785A11-7035-41DA-8172-73E88A4EABAC_5"> 		<radialGradient id="_C8785A11-7035-41DA-8172-73E88A4EABACbackground" cx="10%" cy="10%" r="100%" fx="10%" fy="10%"> 			<stop offset="0%" stop-color="#ffffff" stop-opacity="1" id="_C8785A11-7035-41DA-8172-73E88A4EABAC__C8785A11-7035-41DA-8172-73E88A4EABAC_6"/> 			<stop id="_C8785A11-7035-41DA-8172-73E88A4EABACfill_el" offset="100%" stop-color="#9acd32" stop-opacity="1"/> 		</radialGradient> 	</defs> 	     <circle id="_C8785A11-7035-41DA-8172-73E88A4EABACbg_frame" cx="15" cy="15" r="15" stroke="#000000" fill="url(#_C8785A11-7035-41DA-8172-73E88A4EABACbackground) white" stroke-width="1" style="stroke-dasharray: 5.5, 3"/>      <circle id="_C8785A11-7035-41DA-8172-73E88A4EABACframe" cx="15" cy="15" r="15" stroke="#000000" fill="none" stroke-width="1" display="inherit"/>  	<text font-size="11" id="_C8785A11-7035-41DA-8172-73E88A4EABACtext_name" x="15" y="32" oryx:align="top center" stroke="black" stroke-width="0pt" letter-spacing="-0.01px" fill="#000000" text-anchor="middle" transform="rotate(0 15 32)" visibility="inherit" oryx:fontSize="11"/>   </g></g><g class="children" style="overflow:hidden"/><g class="edge"/></g><g class="controls"><g class="dockers"/><g class="magnets" transform="translate(120, 165)"><g pointer-events="all" display="none" transform="translate(7, 7)"><circle cx="8" cy="8" r="4" stroke="none" fill="red" fill-opacity="0.3"/></g></g></g></g><g id="_079AD387-546D-4E31-AA1B-019BAB2513EB" bpmn2nodeid="_184DE9D6-D8EB-4EC9-949D-210E8F7760CB"><g class="stencils" transform="translate(311, 140)"><g class="me"><g pointer-events="fill" oryx:minimumSize="50 40" id="_079AD387-546D-4E31-AA1B-019BAB2513EB">   	<defs id="_079AD387-546D-4E31-AA1B-019BAB2513EB__079AD387-546D-4E31-AA1B-019BAB2513EB_17"> 		<radialGradient id="_079AD387-546D-4E31-AA1B-019BAB2513EBbackground" cx="10%" cy="10%" r="100%" fx="10%" fy="10%"> 			<stop offset="0%" stop-color="#ffffff" stop-opacity="1" id="_079AD387-546D-4E31-AA1B-019BAB2513EB__079AD387-546D-4E31-AA1B-019BAB2513EB_18"/> 			<stop id="_079AD387-546D-4E31-AA1B-019BAB2513EBfill_el" offset="100%" stop-color="#fafad2" stop-opacity="1"/> 		</radialGradient> 		<radialGradient id="_079AD387-546D-4E31-AA1B-019BAB2513EBborderbackground" cx="10%" cy="10%" r="100%" fx="10%" fy="10%"> 			<stop offset="0%" stop-color="#ffffff" stop-opacity="1" id="_079AD387-546D-4E31-AA1B-019BAB2513EB__079AD387-546D-4E31-AA1B-019BAB2513EB_19"/> 			<stop id="_079AD387-546D-4E31-AA1B-019BAB2513EBfill_border" offset="100%" stop-color="#000000" stop-opacity="1" stroke="#000000"/> 		</radialGradient> 	</defs> 	 	<rect id="_079AD387-546D-4E31-AA1B-019BAB2513EBtext_frame" oryx:anchors="bottom top right left" x="1" y="1" width="110" height="84" rx="10" ry="10" stroke="none" stroke-width="0" fill="none"/> 	<rect id="_079AD387-546D-4E31-AA1B-019BAB2513EBbg_frame" oryx:resize="vertical horizontal" x="0" y="0" width="115.99999999999999" height="85" rx="10" ry="10" stroke="#000000" stroke-width="1" fill="url(#_079AD387-546D-4E31-AA1B-019BAB2513EBbackground) #ffffcc"/> 		<text font-size="12" id="_079AD387-546D-4E31-AA1B-019BAB2513EBtext_name" x="57.99999999999999" y="42.5" oryx:align="middle center" oryx:fittoelem="text_frame" stroke="black" text-anchor="middle" stroke-width="0pt" letter-spacing="-0.01px" fill="#000000" transform="rotate(0 57.99999999999999 42.5)" visibility="inherit" oryx:fontSize="12"><tspan x="57.99999999999999" y="42.5" dy="5">Placeholder</tspan></text>     <g id="_079AD387-546D-4E31-AA1B-019BAB2513EBmanualTask" transform="scale(0.7,0.7) translate(8,8)" display="none">     	<path oryx:anchors="top left" id="_079AD387-546D-4E31-AA1B-019BAB2513EBframe" style="opacity:1;fill:none;fill-opacity:1;stroke-width:1" d="M0.5,3.751l4.083-3.25c0,0,11.166,0.083,12.083,0.083s-2.417,2.917-1.5,2.917     s11.667,0,12.584,0c1.166,1.708-0.168,3.167-0.834,3.667s0.875,1.917-1,4.417c-0.75,0.25,0.75,1.875-1.333,3.333     c-1.167,0.583,0.583,1.542-1.25,2.833c-1.167,0-20.833,0.083-20.833,0.083l-2-1.333V3.751z" stroke="#000000"/> 		<path id="_079AD387-546D-4E31-AA1B-019BAB2513EBframe2" oryx:anchors="top left" style="opacity:1;fill:none;stroke-width:2" d="M 13.5 7 L 27 7" stroke="#000000"/> 		<path id="_079AD387-546D-4E31-AA1B-019BAB2513EBframe3" oryx:anchors="top left" style="opacity:1;fill:none;stroke-width:2" d="M 13.5 11 L 26 11" stroke="#000000"/> 		<path id="_079AD387-546D-4E31-AA1B-019BAB2513EBframe4" oryx:anchors="top left" style="opacity:1;fill:none;stroke-width:1.5" d="M 14 14.5 L 25 14.5" stroke="#000000"/> 		<path id="_079AD387-546D-4E31-AA1B-019BAB2513EBframe5" oryx:anchors="top left" style="opacity:1;fill:none;stroke-width:1.5" d="M 8.2 3.1 L 15 3.1" stroke="#000000"/> 	</g> 	 	<g id="_079AD387-546D-4E31-AA1B-019BAB2513EBbusinessRuleTask" transform="scale(0.7,0.7) translate(8,8)" display="none"> 		<rect id="_079AD387-546D-4E31-AA1B-019BAB2513EBframe6" oryx:anchors="top left" x="0" y="0" width="22" height="4" style="opacity:1;fill:#B3B1B3;fill-opacity:1;" stroke="#000000"/> 		<rect id="_079AD387-546D-4E31-AA1B-019BAB2513EBframe7" oryx:anchors="top left" x="0" y="4" style="opacity:1;fill:none;" width="22" height="12" stroke="#000000"/> 		<path id="_079AD387-546D-4E31-AA1B-019BAB2513EBframe8" oryx:anchors="top left" style="opacity:1;fill:none;" d="M 0 10 L 22 10" stroke="#000000"/> 		<path id="_079AD387-546D-4E31-AA1B-019BAB2513EBframe9" oryx:anchors="top left" style="opacity:1; fill:none;" d="M 7 4 L 7 16" stroke="#000000"/> 	</g> 	 	<g id="_079AD387-546D-4E31-AA1B-019BAB2513EBscriptTask" transform="scale(0.7,0.7) translate(8,8)" display="inherit"> 		<path oryx:anchors="top left" id="_079AD387-546D-4E31-AA1B-019BAB2513EBframe10" style="opacity:1;fill:none;" stroke="#000000" d="M6.402,0.5h14.5c0,0-5.833,2.833-5.833,5.583s4.417,6,4.417,9.167    s-4.167,5.083-4.167,5.083H0.235c0,0,5-2.667,5-5s-4.583-6.75-4.583-9.25S6.402,0.5,6.402,0.5z"/> 		<path oryx:anchors="top left" id="_079AD387-546D-4E31-AA1B-019BAB2513EBframe11" style="opacity:1;fill:none;stroke-width:1.5" d="M 3.5 4.5 L 13.5 4.5" stroke="#000000"/> 		<path oryx:anchors="top left" id="_079AD387-546D-4E31-AA1B-019BAB2513EBframe12" style="opacity:1;fill:none;stroke-width:1.5" d="M 3.8 8.5 L 13.8 8.5" stroke="#000000"/> 		<path oryx:anchors="top left" id="_079AD387-546D-4E31-AA1B-019BAB2513EBframe13" style="opacity:1;fill:none;stroke-width:1.5" d="M 6.3 12.5 L 16.3 12.5" stroke="#000000"/> 		<path oryx:anchors="top left" id="_079AD387-546D-4E31-AA1B-019BAB2513EBframe14" style="opacity:1;fill:none;stroke-width:1.5" d="M 6.5 16.5 L 16.5 16.5" stroke="#000000"/> 	</g> 	 	<g id="_079AD387-546D-4E31-AA1B-019BAB2513EBuserTask" transform="scale(0.7,0.7) translate(8,8)" display="none"> 		<path id="_079AD387-546D-4E31-AA1B-019BAB2513EBframe15" oryx:anchors="top left" style="opacity:1;fill:#F4F6F7" stroke="#000000" d="M0.585,24.167h24.083v-7.833c0,0-2.333-3.917-7.083-5.167h-9.25    c-4.417,1.333-7.833,5.75-7.833,5.75L0.585,24.167z"/> 		<path id="_079AD387-546D-4E31-AA1B-019BAB2513EBframe16" oryx:anchors="top left" style="opacity:1;fill:none" d="M 6 20 L 6 24" stroke="#000000"/> 		<path id="_079AD387-546D-4E31-AA1B-019BAB2513EBframe17" oryx:anchors="top left" style="opacity:1;fill:none" d="M 20 20 L 20 24" stroke="#000000"/> 		<circle id="_079AD387-546D-4E31-AA1B-019BAB2513EBframe18" oryx:anchors="top left" fill="black" cx="13.002" cy="5.916" r="5.417" stroke="#000000"/> 		<path id="_079AD387-546D-4E31-AA1B-019BAB2513EBframe19" oryx:anchors="top left" style="opacity:1;fill:#F0EFF0;" stroke="#000000" d="M8.043,7.083c0,0,2.814-2.426,5.376-1.807s4.624-0.693,4.624-0.693    c0.25,1.688,0.042,3.75-1.458,5.584c0,0,1.083,0.75,1.083,1.5s0.125,1.875-1,3s-5.5,1.25-6.75,0S8.668,12.834,8.668,12    s0.583-1.25,1.25-1.917C8.835,9.5,7.419,7.708,8.043,7.083z"/> 	</g> 	 	<g id="_079AD387-546D-4E31-AA1B-019BAB2513EBserviceTask" transform="scale(0.7,0.7) translate(8,8)" display="none"> 		<polygon oryx:anchors="top left" id="_079AD387-546D-4E31-AA1B-019BAB2513EBframe20" style="opacity:1;fill:#ffffff" stroke="#000000" points="15.392,5.064 17.954,2.502 20.347,4.895 17.786,7.455     18.729,9.732 22.353,9.732 22.353,13.115 18.731,13.115 17.788,15.392 20.351,17.955 17.958,20.347 15.397,17.786 13.12,18.729     13.12,22.353 9.737,22.353 9.737,18.731 7.46,17.788 4.897,20.35 2.506,17.958 5.066,15.397 4.124,13.12 0.5,13.12 0.5,9.737     4.121,9.737 5.065,7.461 2.503,4.898 4.895,2.506 7.455,5.066 9.732,4.125 9.732,0.5 13.116,0.5 13.116,4.121 "/> 		<circle oryx:anchors="top left" id="_079AD387-546D-4E31-AA1B-019BAB2513EBframe21" style="opacity:1;fill:none" stroke="#000000" cx="11.427" cy="11.426" r="3.714"/> 		<polygon oryx:anchors="top left" id="_079AD387-546D-4E31-AA1B-019BAB2513EBframe22" style="opacity:1;fill:#ffffff" stroke="#000000" points="21.392,11.064 23.954,8.502 26.347,10.895 23.786,13.455     24.729,15.732 28.353,15.732 28.353,19.115 24.731,19.115 23.788,21.392 26.351,23.955 23.958,26.347 21.397,23.786 19.12,24.729     19.12,28.353 15.737,28.353 15.737,24.731 13.46,23.788 10.897,26.35 8.506,23.958 11.066,21.397 10.124,19.12 6.5,19.12     6.5,15.737 10.121,15.737 11.065,13.461 8.503,10.898 10.895,8.506 13.455,11.066 15.732,10.125 15.732,6.5 19.116,6.5     19.116,10.121 "/> 		<circle oryx:anchors="top left" id="_079AD387-546D-4E31-AA1B-019BAB2513EBframe23" style="opacity:1;fill:none;" stroke="#000000" cx="17.427" cy="17.426" r="3.714"/> 	</g> 	 	<g id="_079AD387-546D-4E31-AA1B-019BAB2513EBsendTask" display="none"> 		<path id="_079AD387-546D-4E31-AA1B-019BAB2513EBstframe24" oryx:anchors="left top" stroke="#FFFFFF" fill="black" stroke-width="1" d="M8,11 L8,21 L24,21 L24,11 L16,17z"/> 		<path id="_079AD387-546D-4E31-AA1B-019BAB2513EBstframe25" oryx:anchors="left top" stroke="#FFFFFF" fill="black" stroke-width="1" d="M7,10 L16,17 L25 10z"/> 	</g> 	 	<g id="_079AD387-546D-4E31-AA1B-019BAB2513EBreceiveTask" display="none"> 		<path id="_079AD387-546D-4E31-AA1B-019BAB2513EBframe26" oryx:anchors="left top" stroke="#000000" fill="none" stroke-width="1" d="M8,11 L8,21 L24,21 L24,11z M8,11 L16,17 L24,11"/> 	</g> 	 	<g id="_079AD387-546D-4E31-AA1B-019BAB2513EBnone" display="inherit"/>  	<g id="_079AD387-546D-4E31-AA1B-019BAB2513EBsequential" display="none">         <path oryx:anchors="bottom" fill="none" stroke="#000000" stroke-width="2" d=" M54.16 81  h10  M54.16 77  h10  M54.16 73  h10 " id="_079AD387-546D-4E31-AA1B-019BAB2513EB__079AD387-546D-4E31-AA1B-019BAB2513EB_20"/>     </g>   </g></g><g class="children" style="overflow:hidden"/><g class="edge"/></g><g class="controls"><g class="dockers"/><g class="magnets" transform="translate(311, 140)"><g pointer-events="all" display="none" transform="translate(-7, 13.25)"><circle cx="8" cy="8" r="4" stroke="none" fill="red" fill-opacity="0.3"/></g><g pointer-events="all" display="none" transform="translate(-7, 34.5)"><circle cx="8" cy="8" r="4" stroke="none" fill="red" fill-opacity="0.3"/></g><g pointer-events="all" display="none" transform="translate(-7, 55.75)"><circle cx="8" cy="8" r="4" stroke="none" fill="red" fill-opacity="0.3"/></g><g pointer-events="all" display="none" transform="translate(20.999999999999996, 76)"><circle cx="8" cy="8" r="4" stroke="none" fill="red" fill-opacity="0.3"/></g><g pointer-events="all" display="none" transform="translate(49.99999999999999, 76)"><circle cx="8" cy="8" r="4" stroke="none" fill="red" fill-opacity="0.3"/></g><g pointer-events="all" display="none" transform="translate(79, 76)"><circle cx="8" cy="8" r="4" stroke="none" fill="red" fill-opacity="0.3"/></g><g pointer-events="all" display="none" transform="translate(107, 13.25)"><circle cx="8" cy="8" r="4" stroke="none" fill="red" fill-opacity="0.3"/></g><g pointer-events="all" display="none" transform="translate(107, 34.5)"><circle cx="8" cy="8" r="4" stroke="none" fill="red" fill-opacity="0.3"/></g><g pointer-events="all" display="none" transform="translate(107, 55.75)"><circle cx="8" cy="8" r="4" stroke="none" fill="red" fill-opacity="0.3"/></g><g pointer-events="all" display="none" transform="translate(20.999999999999996, -7)"><circle cx="8" cy="8" r="4" stroke="none" fill="red" fill-opacity="0.3"/></g><g pointer-events="all" display="none" transform="translate(49.99999999999999, -7)"><circle cx="8" cy="8" r="4" stroke="none" fill="red" fill-opacity="0.3"/></g><g pointer-events="all" display="none" transform="translate(79, -7)"><circle cx="8" cy="8" r="4" stroke="none" fill="red" fill-opacity="0.3"/></g><g pointer-events="all" display="none" transform="translate(49.99999999999999, 34.5)"><circle cx="8" cy="8" r="4" stroke="none" fill="red" fill-opacity="0.3"/></g></g></g></g><g id="_FEA705BD-2F3B-41A8-8844-A17B31B45480" bpmn2nodeid="_5C5B5A03-C3AC-4953-B8F3-5CEE3A6D1538"><g class="stencils" transform="translate(562, 168)"><g class="me"><g pointer-events="fill" id="_FEA705BD-2F3B-41A8-8844-A17B31B45480">      <defs id="_FEA705BD-2F3B-41A8-8844-A17B31B45480__FEA705BD-2F3B-41A8-8844-A17B31B45480_5"> 		<radialGradient id="_FEA705BD-2F3B-41A8-8844-A17B31B45480background" cx="10%" cy="10%" r="100%" fx="10%" fy="10%"> 			<stop offset="0%" stop-color="#ffffff" stop-opacity="1" id="_FEA705BD-2F3B-41A8-8844-A17B31B45480__FEA705BD-2F3B-41A8-8844-A17B31B45480_6"/> 			<stop id="_FEA705BD-2F3B-41A8-8844-A17B31B45480fill_el" offset="100%" stop-color="#ff6347" stop-opacity="1"/> 		</radialGradient> 	</defs> 	     <circle id="_FEA705BD-2F3B-41A8-8844-A17B31B45480bg_frame" cx="14" cy="14" r="14" stroke="#000000" fill="url(#_FEA705BD-2F3B-41A8-8844-A17B31B45480background) white" stroke-width="3"/> 	<text font-size="11" id="_FEA705BD-2F3B-41A8-8844-A17B31B45480text_name" x="14" y="30" oryx:align="top center" stroke="black" stroke-width="0pt" letter-spacing="-0.01px" fill="#000000" text-anchor="middle" transform="rotate(0 14 30)" visibility="inherit" oryx:fontSize="11"/>   </g></g><g class="children" style="overflow:hidden"/><g class="edge"/></g><g class="controls"><g class="dockers"/><g class="magnets" transform="translate(562, 168)"><g pointer-events="all" display="none" transform="translate(6, 6)"><circle cx="8" cy="8" r="4" stroke="none" fill="red" fill-opacity="0.3"/></g></g></g></g></g><g class="edge"><g id="_DC3BB9C9-545F-425B-8AF6-57ADD413108D" bpmn2nodeid="_E0DCFA30-4B6D-4CAD-8F09-01B6DA996F40"><g class="stencils"><g class="me"><g pointer-events="painted" bpmn2nodeid="_A9539C90-5327-4777-9EB7-39A69DB9CAB2"><path id="_DC3BB9C9-545F-425B-8AF6-57ADD413108D_1" d="M150.62494293351406 180.16693315099909L310.4141195664859 181.87408247400091 " stroke="#000000" fill="none" stroke-width="2" stroke-linecap="round" stroke-linejoin="round" marker-start="url(#_DC3BB9C9-545F-425B-8AF6-57ADD413108Dstart)" marker-end="url(#_DC3BB9C9-545F-425B-8AF6-57ADD413108Dend)"/></g><text id="_DC3BB9C9-545F-425B-8AF6-57ADD413108Dtext_name" font-size="12" x="164.62494293351406" y="166.16693315099909" oryx:edgePosition="startTop" stroke-width="0pt" letter-spacing="-0.01px" fill="#000000" text-anchor="start" transform="rotate(0.612111107869282 150.62494293351406 180.16693315099909)" visibility="inherit" oryx:fontSize="12"/></g><g class="children" style="overflow:hidden"/><g class="edge"/></g><g class="controls"><g class="dockers"/><g class="magnets"/></g></g><g id="_B5425ACE-AD6D-4DB8-B799-46E29FCADECF" bpmn2nodeid="_EB9F9947-5864-46FE-83AC-0C94CCEA934E"><g class="stencils"><g class="me"><g pointer-events="painted" bpmn2nodeid="_96D20B6A-E26B-426A-9C47-4AF0375ED2A4"><path id="_B5425ACE-AD6D-4DB8-B799-46E29FCADECF_1" d="M427.4101533327918 182.3589126731092L561.2539091672081 182.0356185768908 " stroke="#000000" fill="none" stroke-width="2" stroke-linecap="round" stroke-linejoin="round" marker-start="url(#_B5425ACE-AD6D-4DB8-B799-46E29FCADECFstart)" marker-end="url(#_B5425ACE-AD6D-4DB8-B799-46E29FCADECFend)"/></g><text id="_B5425ACE-AD6D-4DB8-B799-46E29FCADECFtext_name" font-size="12" x="441.4101533327918" y="168.3589126731092" oryx:edgePosition="startTop" stroke-width="0pt" letter-spacing="-0.01px" fill="#000000" text-anchor="start" transform="rotate(359.8616046664642 427.4101533327918 182.3589126731092)" visibility="inherit" oryx:fontSize="12"/></g><g class="children" style="overflow:hidden"/><g class="edge"/></g><g class="controls"><g class="dockers"/><g class="magnets"/></g></g></g><text id="_E3FC3D8F-32FA-40C9-A7EA-12A215CF483F" style="stroke-width:1;fill:rgb(177,194,214);font-family:arial;font-weight:bold" font-size="12" onclick="ORYX.Plugins.CanvasTitle.openTextualAnalysis()" onmouseover="ORYX.Plugins.CanvasTitle.addToolTip('_E3FC3D8F-32FA-40C9-A7EA-12A215CF483F')" transform="translate(10, 20)">LegalCheckProcess v.1.0 (commercial-client-onboarding.LegalCheckProcess)</text></g></g></svg>