<svg xmlns="http://www.w3.org/2000/svg" xmlns:oryx="http://oryx-editor.org" id="_9731FBC8-C2F5-43A8-86BC-1922DFE2A9DD" width="630.5499877929688" height="270" xmlns:xlink="http://www.w3.org/1999/xlink" xmlns:svg="http://www.w3.org/2000/svg"><defs><marker id="_11A65FE3-E291-429D-A757-5993BCBF3AD9start" refX="1" refY="5" markerUnits="userSpaceOnUse" markerWidth="17" markerHeight="11" orient="auto" fill="#000000" stroke="#000000"> 	  		<path id="_11A65FE3-E291-429D-A757-5993BCBF3AD9conditional" d="M 0 5 L 8 0 L 16 5 L 8 10 L 0 5" fill="white" stroke="#000000" stroke-width="1" display="none"/> 			<path id="_11A65FE3-E291-429D-A757-5993BCBF3AD9default" d="M 5 0 L 11 10" fill="white" stroke="#000000" stroke-width="1" display="none"/> 	  	</marker><marker id="_11A65FE3-E291-429D-A757-5993BCBF3AD9end" refX="15" refY="6" markerUnits="userSpaceOnUse" markerWidth="15" markerHeight="12" orient="auto" fill="#000000" stroke="#000000"> 	  		<path id="_11A65FE3-E291-429D-A757-5993BCBF3AD9frame2" d="M 0 1 L 15 6 L 0 11z" fill="#000000" stroke="#000000" stroke-linejoin="round" stroke-width="2"/> 	  	</marker><marker id="_1B053790-C1AB-484B-A0F9-316C9378B5E5start" refX="1" refY="5" markerUnits="userSpaceOnUse" markerWidth="17" markerHeight="11" orient="auto" fill="#000000" stroke="#000000"> 	  		<path id="_1B053790-C1AB-484B-A0F9-316C9378B5E5conditional" d="M 0 5 L 8 0 L 16 5 L 8 10 L 0 5" fill="white" stroke="#000000" stroke-width="1" display="none"/> 			<path id="_1B053790-C1AB-484B-A0F9-316C9378B5E5default" d="M 5 0 L 11 10" fill="white" stroke="#000000" stroke-width="1" display="none"/> 	  	</marker><marker id="_1B053790-C1AB-484B-A0F9-316C9378B5E5end" refX="15" refY="6" markerUnits="userSpaceOnUse" markerWidth="15" markerHeight="12" orient="auto" fill="#000000" stroke="#000000"> 	  		<path id="_1B053790-C1AB-484B-A0F9-316C9378B5E5frame2" d="M 0 1 L 15 6 L 0 11z" fill="#000000" stroke="#000000" stroke-linejoin="round" stroke-width="2"/> 	  	</marker></defs><g stroke="none" font-family="Verdana, sans-serif" font-size-adjust="none" font-style="normal" font-variant="normal" font-weight="normal" line-heigth="normal" font-size="12"><g class="stencils" transform="translate(15.550000190734863, 16)"><g class="me"/><g class="children"><g id="_9204E06D-652F-48CC-BBC5-4174D49F8110" bpmn2nodeid="processStartEvent"><g class="stencils" transform="translate(120, 165)"><g class="me"><g pointer-events="fill" id="_9204E06D-652F-48CC-BBC5-4174D49F8110">        <defs id="_9204E06D-652F-48CC-BBC5-4174D49F8110__9204E06D-652F-48CC-BBC5-4174D49F8110_5"> 		<radialGradient id="_9204E06D-652F-48CC-BBC5-4174D49F8110background" cx="10%" cy="10%" r="100%" fx="10%" fy="10%"> 			<stop offset="0%" stop-color="#ffffff" stop-opacity="1" id="_9204E06D-652F-48CC-BBC5-4174D49F8110__9204E06D-652F-48CC-BBC5-4174D49F8110_6"/> 			<stop id="_9204E06D-652F-48CC-BBC5-4174D49F8110fill_el" offset="100%" stop-color="#9acd32" stop-opacity="1"/> 		</radialGradient> 	</defs> 	     <circle id="_9204E06D-652F-48CC-BBC5-4174D49F8110bg_frame" cx="15" cy="15" r="15" stroke="#000000" fill="url(#_9204E06D-652F-48CC-BBC5-4174D49F8110background) white" stroke-width="1" style="stroke-dasharray: 5.5, 3"/>      <circle id="_9204E06D-652F-48CC-BBC5-4174D49F8110frame" cx="15" cy="15" r="15" stroke="#000000" fill="none" stroke-width="1" display="inherit"/>  	<text font-size="11" id="_9204E06D-652F-48CC-BBC5-4174D49F8110text_name" x="15" y="32" oryx:align="top center" stroke="black" stroke-width="0pt" letter-spacing="-0.01px" fill="#000000" text-anchor="middle" transform="rotate(0 15 32)" visibility="inherit" oryx:fontSize="11"/>   </g></g><g class="children" style="overflow:hidden"/><g class="edge"/></g><g class="controls"><g class="dockers"/><g class="magnets" transform="translate(120, 165)"><g pointer-events="all" display="none" transform="translate(7, 7)"><circle cx="8" cy="8" r="4" stroke="none" fill="red" fill-opacity="0.3"/></g></g></g></g><g id="_560EAB07-4E09-41AD-B244-1C903E89B21D" bpmn2nodeid="_184DE9D6-D8EB-4EC9-949D-210E8F7760CB"><g class="stencils" transform="translate(311, 140)"><g class="me"><g pointer-events="fill" oryx:minimumSize="50 40" id="_560EAB07-4E09-41AD-B244-1C903E89B21D">   	<defs id="_560EAB07-4E09-41AD-B244-1C903E89B21D__560EAB07-4E09-41AD-B244-1C903E89B21D_17"> 		<radialGradient id="_560EAB07-4E09-41AD-B244-1C903E89B21Dbackground" cx="10%" cy="10%" r="100%" fx="10%" fy="10%"> 			<stop offset="0%" stop-color="#ffffff" stop-opacity="1" id="_560EAB07-4E09-41AD-B244-1C903E89B21D__560EAB07-4E09-41AD-B244-1C903E89B21D_18"/> 			<stop id="_560EAB07-4E09-41AD-B244-1C903E89B21Dfill_el" offset="100%" stop-color="#fafad2" stop-opacity="1"/> 		</radialGradient> 		<radialGradient id="_560EAB07-4E09-41AD-B244-1C903E89B21Dborderbackground" cx="10%" cy="10%" r="100%" fx="10%" fy="10%"> 			<stop offset="0%" stop-color="#ffffff" stop-opacity="1" id="_560EAB07-4E09-41AD-B244-1C903E89B21D__560EAB07-4E09-41AD-B244-1C903E89B21D_19"/> 			<stop id="_560EAB07-4E09-41AD-B244-1C903E89B21Dfill_border" offset="100%" stop-color="#000000" stop-opacity="1" stroke="#000000"/> 		</radialGradient> 	</defs> 	 	<rect id="_560EAB07-4E09-41AD-B244-1C903E89B21Dtext_frame" oryx:anchors="bottom top right left" x="1" y="1" width="110" height="84" rx="10" ry="10" stroke="none" stroke-width="0" fill="none"/> 	<rect id="_560EAB07-4E09-41AD-B244-1C903E89B21Dbg_frame" oryx:resize="vertical horizontal" x="0" y="0" width="116" height="85" rx="10" ry="10" stroke="#000000" stroke-width="1" fill="url(#_560EAB07-4E09-41AD-B244-1C903E89B21Dbackground) #ffffcc"/> 		<text font-size="12" id="_560EAB07-4E09-41AD-B244-1C903E89B21Dtext_name" x="58" y="42.5" oryx:align="middle center" oryx:fittoelem="text_frame" stroke="black" text-anchor="middle" stroke-width="0pt" letter-spacing="-0.01px" fill="#000000" transform="rotate(0 58 42.5)" visibility="inherit" oryx:fontSize="12"><tspan x="58" y="42.5" dy="5" id="ext-gen785">Placeholder</tspan></text>     <g id="_560EAB07-4E09-41AD-B244-1C903E89B21DmanualTask" transform="scale(0.7,0.7) translate(8,8)" display="none">     	<path oryx:anchors="top left" id="_560EAB07-4E09-41AD-B244-1C903E89B21Dframe" style="opacity:1;fill:none;fill-opacity:1;stroke-width:1" d="M0.5,3.751l4.083-3.25c0,0,11.166,0.083,12.083,0.083s-2.417,2.917-1.5,2.917     s11.667,0,12.584,0c1.166,1.708-0.168,3.167-0.834,3.667s0.875,1.917-1,4.417c-0.75,0.25,0.75,1.875-1.333,3.333     c-1.167,0.583,0.583,1.542-1.25,2.833c-1.167,0-20.833,0.083-20.833,0.083l-2-1.333V3.751z" stroke="#000000"/> 		<path id="_560EAB07-4E09-41AD-B244-1C903E89B21Dframe2" oryx:anchors="top left" style="opacity:1;fill:none;stroke-width:2" d="M 13.5 7 L 27 7" stroke="#000000"/> 		<path id="_560EAB07-4E09-41AD-B244-1C903E89B21Dframe3" oryx:anchors="top left" style="opacity:1;fill:none;stroke-width:2" d="M 13.5 11 L 26 11" stroke="#000000"/> 		<path id="_560EAB07-4E09-41AD-B244-1C903E89B21Dframe4" oryx:anchors="top left" style="opacity:1;fill:none;stroke-width:1.5" d="M 14 14.5 L 25 14.5" stroke="#000000"/> 		<path id="_560EAB07-4E09-41AD-B244-1C903E89B21Dframe5" oryx:anchors="top left" style="opacity:1;fill:none;stroke-width:1.5" d="M 8.2 3.1 L 15 3.1" stroke="#000000"/> 	</g> 	 	<g id="_560EAB07-4E09-41AD-B244-1C903E89B21DbusinessRuleTask" transform="scale(0.7,0.7) translate(8,8)" display="none"> 		<rect id="_560EAB07-4E09-41AD-B244-1C903E89B21Dframe6" oryx:anchors="top left" x="0" y="0" width="22" height="4" style="opacity:1;fill:#B3B1B3;fill-opacity:1;" stroke="#000000"/> 		<rect id="_560EAB07-4E09-41AD-B244-1C903E89B21Dframe7" oryx:anchors="top left" x="0" y="4" style="opacity:1;fill:none;" width="22" height="12" stroke="#000000"/> 		<path id="_560EAB07-4E09-41AD-B244-1C903E89B21Dframe8" oryx:anchors="top left" style="opacity:1;fill:none;" d="M 0 10 L 22 10" stroke="#000000"/> 		<path id="_560EAB07-4E09-41AD-B244-1C903E89B21Dframe9" oryx:anchors="top left" style="opacity:1; fill:none;" d="M 7 4 L 7 16" stroke="#000000"/> 	</g> 	 	<g id="_560EAB07-4E09-41AD-B244-1C903E89B21DscriptTask" transform="scale(0.7,0.7) translate(8,8)" display="inherit"> 		<path oryx:anchors="top left" id="_560EAB07-4E09-41AD-B244-1C903E89B21Dframe10" style="opacity:1;fill:none;" stroke="#000000" d="M6.402,0.5h14.5c0,0-5.833,2.833-5.833,5.583s4.417,6,4.417,9.167    s-4.167,5.083-4.167,5.083H0.235c0,0,5-2.667,5-5s-4.583-6.75-4.583-9.25S6.402,0.5,6.402,0.5z"/> 		<path oryx:anchors="top left" id="_560EAB07-4E09-41AD-B244-1C903E89B21Dframe11" style="opacity:1;fill:none;stroke-width:1.5" d="M 3.5 4.5 L 13.5 4.5" stroke="#000000"/> 		<path oryx:anchors="top left" id="_560EAB07-4E09-41AD-B244-1C903E89B21Dframe12" style="opacity:1;fill:none;stroke-width:1.5" d="M 3.8 8.5 L 13.8 8.5" stroke="#000000"/> 		<path oryx:anchors="top left" id="_560EAB07-4E09-41AD-B244-1C903E89B21Dframe13" style="opacity:1;fill:none;stroke-width:1.5" d="M 6.3 12.5 L 16.3 12.5" stroke="#000000"/> 		<path oryx:anchors="top left" id="_560EAB07-4E09-41AD-B244-1C903E89B21Dframe14" style="opacity:1;fill:none;stroke-width:1.5" d="M 6.5 16.5 L 16.5 16.5" stroke="#000000"/> 	</g> 	 	<g id="_560EAB07-4E09-41AD-B244-1C903E89B21DuserTask" transform="scale(0.7,0.7) translate(8,8)" display="none"> 		<path id="_560EAB07-4E09-41AD-B244-1C903E89B21Dframe15" oryx:anchors="top left" style="opacity:1;fill:#F4F6F7" stroke="#000000" d="M0.585,24.167h24.083v-7.833c0,0-2.333-3.917-7.083-5.167h-9.25    c-4.417,1.333-7.833,5.75-7.833,5.75L0.585,24.167z"/> 		<path id="_560EAB07-4E09-41AD-B244-1C903E89B21Dframe16" oryx:anchors="top left" style="opacity:1;fill:none" d="M 6 20 L 6 24" stroke="#000000"/> 		<path id="_560EAB07-4E09-41AD-B244-1C903E89B21Dframe17" oryx:anchors="top left" style="opacity:1;fill:none" d="M 20 20 L 20 24" stroke="#000000"/> 		<circle id="_560EAB07-4E09-41AD-B244-1C903E89B21Dframe18" oryx:anchors="top left" fill="black" cx="13.002" cy="5.916" r="5.417" stroke="#000000"/> 		<path id="_560EAB07-4E09-41AD-B244-1C903E89B21Dframe19" oryx:anchors="top left" style="opacity:1;fill:#F0EFF0;" stroke="#000000" d="M8.043,7.083c0,0,2.814-2.426,5.376-1.807s4.624-0.693,4.624-0.693    c0.25,1.688,0.042,3.75-1.458,5.584c0,0,1.083,0.75,1.083,1.5s0.125,1.875-1,3s-5.5,1.25-6.75,0S8.668,12.834,8.668,12    s0.583-1.25,1.25-1.917C8.835,9.5,7.419,7.708,8.043,7.083z"/> 	</g> 	 	<g id="_560EAB07-4E09-41AD-B244-1C903E89B21DserviceTask" transform="scale(0.7,0.7) translate(8,8)" display="none"> 		<polygon oryx:anchors="top left" id="_560EAB07-4E09-41AD-B244-1C903E89B21Dframe20" style="opacity:1;fill:#ffffff" stroke="#000000" points="15.392,5.064 17.954,2.502 20.347,4.895 17.786,7.455     18.729,9.732 22.353,9.732 22.353,13.115 18.731,13.115 17.788,15.392 20.351,17.955 17.958,20.347 15.397,17.786 13.12,18.729     13.12,22.353 9.737,22.353 9.737,18.731 7.46,17.788 4.897,20.35 2.506,17.958 5.066,15.397 4.124,13.12 0.5,13.12 0.5,9.737     4.121,9.737 5.065,7.461 2.503,4.898 4.895,2.506 7.455,5.066 9.732,4.125 9.732,0.5 13.116,0.5 13.116,4.121 "/> 		<circle oryx:anchors="top left" id="_560EAB07-4E09-41AD-B244-1C903E89B21Dframe21" style="opacity:1;fill:none" stroke="#000000" cx="11.427" cy="11.426" r="3.714"/> 		<polygon oryx:anchors="top left" id="_560EAB07-4E09-41AD-B244-1C903E89B21Dframe22" style="opacity:1;fill:#ffffff" stroke="#000000" points="21.392,11.064 23.954,8.502 26.347,10.895 23.786,13.455     24.729,15.732 28.353,15.732 28.353,19.115 24.731,19.115 23.788,21.392 26.351,23.955 23.958,26.347 21.397,23.786 19.12,24.729     19.12,28.353 15.737,28.353 15.737,24.731 13.46,23.788 10.897,26.35 8.506,23.958 11.066,21.397 10.124,19.12 6.5,19.12     6.5,15.737 10.121,15.737 11.065,13.461 8.503,10.898 10.895,8.506 13.455,11.066 15.732,10.125 15.732,6.5 19.116,6.5     19.116,10.121 "/> 		<circle oryx:anchors="top left" id="_560EAB07-4E09-41AD-B244-1C903E89B21Dframe23" style="opacity:1;fill:none;" stroke="#000000" cx="17.427" cy="17.426" r="3.714"/> 	</g> 	 	<g id="_560EAB07-4E09-41AD-B244-1C903E89B21DsendTask" display="none"> 		<path id="_560EAB07-4E09-41AD-B244-1C903E89B21Dstframe24" oryx:anchors="left top" stroke="#FFFFFF" fill="black" stroke-width="1" d="M8,11 L8,21 L24,21 L24,11 L16,17z"/> 		<path id="_560EAB07-4E09-41AD-B244-1C903E89B21Dstframe25" oryx:anchors="left top" stroke="#FFFFFF" fill="black" stroke-width="1" d="M7,10 L16,17 L25 10z"/> 	</g> 	 	<g id="_560EAB07-4E09-41AD-B244-1C903E89B21DreceiveTask" display="none"> 		<path id="_560EAB07-4E09-41AD-B244-1C903E89B21Dframe26" oryx:anchors="left top" stroke="#000000" fill="none" stroke-width="1" d="M8,11 L8,21 L24,21 L24,11z M8,11 L16,17 L24,11"/> 	</g> 	 	<g id="_560EAB07-4E09-41AD-B244-1C903E89B21Dnone" display="none"/>  	<g id="_560EAB07-4E09-41AD-B244-1C903E89B21Dsequential" display="none">         <path oryx:anchors="bottom" fill="none" stroke="#000000" stroke-width="2" d=" M54.16 81  h10  M54.16 77  h10  M54.16 73  h10 " id="_560EAB07-4E09-41AD-B244-1C903E89B21D__560EAB07-4E09-41AD-B244-1C903E89B21D_20"/>     </g>   </g></g><g class="children" style="overflow:hidden"/><g class="edge"/></g><g class="controls"><g class="dockers"/><g class="magnets" transform="translate(311, 140)"><g pointer-events="all" display="none" transform="translate(-7, 13.25)"><circle cx="8" cy="8" r="4" stroke="none" fill="red" fill-opacity="0.3"/></g><g pointer-events="all" display="none" transform="translate(-7, 34.5)"><circle cx="8" cy="8" r="4" stroke="none" fill="red" fill-opacity="0.3"/></g><g pointer-events="all" display="none" transform="translate(-7, 55.75)"><circle cx="8" cy="8" r="4" stroke="none" fill="red" fill-opacity="0.3"/></g><g pointer-events="all" display="none" transform="translate(21, 76)"><circle cx="8" cy="8" r="4" stroke="none" fill="red" fill-opacity="0.3"/></g><g pointer-events="all" display="none" transform="translate(50, 76)"><circle cx="8" cy="8" r="4" stroke="none" fill="red" fill-opacity="0.3"/></g><g pointer-events="all" display="none" transform="translate(79, 76)"><circle cx="8" cy="8" r="4" stroke="none" fill="red" fill-opacity="0.3"/></g><g pointer-events="all" display="none" transform="translate(107, 13.25)"><circle cx="8" cy="8" r="4" stroke="none" fill="red" fill-opacity="0.3"/></g><g pointer-events="all" display="none" transform="translate(107, 34.5)"><circle cx="8" cy="8" r="4" stroke="none" fill="red" fill-opacity="0.3"/></g><g pointer-events="all" display="none" transform="translate(107, 55.75)"><circle cx="8" cy="8" r="4" stroke="none" fill="red" fill-opacity="0.3"/></g><g pointer-events="all" display="none" transform="translate(21, -7)"><circle cx="8" cy="8" r="4" stroke="none" fill="red" fill-opacity="0.3"/></g><g pointer-events="all" display="none" transform="translate(50, -7)"><circle cx="8" cy="8" r="4" stroke="none" fill="red" fill-opacity="0.3"/></g><g pointer-events="all" display="none" transform="translate(79, -7)"><circle cx="8" cy="8" r="4" stroke="none" fill="red" fill-opacity="0.3"/></g><g pointer-events="all" display="none" transform="translate(50, 34.5)"><circle cx="8" cy="8" r="4" stroke="none" fill="red" fill-opacity="0.3"/></g></g></g></g><g id="_CE5C68E4-23F1-41A2-A687-673C6821BD5C" bpmn2nodeid="_5C5B5A03-C3AC-4953-B8F3-5CEE3A6D1538"><g class="stencils" transform="translate(562, 168.5)"><g class="me"><g pointer-events="fill" id="_CE5C68E4-23F1-41A2-A687-673C6821BD5C">      <defs id="_CE5C68E4-23F1-41A2-A687-673C6821BD5C__CE5C68E4-23F1-41A2-A687-673C6821BD5C_5"> 		<radialGradient id="_CE5C68E4-23F1-41A2-A687-673C6821BD5Cbackground" cx="10%" cy="10%" r="100%" fx="10%" fy="10%"> 			<stop offset="0%" stop-color="#ffffff" stop-opacity="1" id="_CE5C68E4-23F1-41A2-A687-673C6821BD5C__CE5C68E4-23F1-41A2-A687-673C6821BD5C_6"/> 			<stop id="_CE5C68E4-23F1-41A2-A687-673C6821BD5Cfill_el" offset="100%" stop-color="#ff6347" stop-opacity="1"/> 		</radialGradient> 	</defs> 	     <circle id="_CE5C68E4-23F1-41A2-A687-673C6821BD5Cbg_frame" cx="14" cy="14" r="14" stroke="#000000" fill="url(#_CE5C68E4-23F1-41A2-A687-673C6821BD5Cbackground) white" stroke-width="3"/> 	<text font-size="11" id="_CE5C68E4-23F1-41A2-A687-673C6821BD5Ctext_name" x="14" y="30" oryx:align="top center" stroke="black" stroke-width="0pt" letter-spacing="-0.01px" fill="#000000" text-anchor="middle" transform="rotate(0 14 30)" visibility="inherit" oryx:fontSize="11"/>   </g></g><g class="children" style="overflow:hidden"/><g class="edge"/></g><g class="controls"><g class="dockers"/><g class="magnets" transform="translate(562, 168.5)"><g pointer-events="all" display="none" transform="translate(6, 6)"><circle cx="8" cy="8" r="4" stroke="none" fill="red" fill-opacity="0.3"/></g></g></g></g></g><g class="edge"><g id="_11A65FE3-E291-429D-A757-5993BCBF3AD9" bpmn2nodeid="_E0DCFA30-4B6D-4CAD-8F09-01B6DA996F40"><g class="stencils"><g class="me"><g pointer-events="painted" bpmn2nodeid="_E0DCFA30-4B6D-4CAD-8F09-01B6DA996F40"><path id="_11A65FE3-E291-429D-A757-5993BCBF3AD9_1" d="M150.62494293351406 180.16693315099909L310.4141195664859 181.87408247400091 " stroke="#000000" fill="none" stroke-width="2" stroke-linecap="round" stroke-linejoin="round" marker-start="url(#_11A65FE3-E291-429D-A757-5993BCBF3AD9start)" marker-end="url(#_11A65FE3-E291-429D-A757-5993BCBF3AD9end)"/></g><text id="_11A65FE3-E291-429D-A757-5993BCBF3AD9text_name" font-size="12" x="164.62494293351406" y="166.16693315099909" oryx:edgePosition="startTop" stroke-width="0pt" letter-spacing="-0.01px" fill="#000000" text-anchor="start" transform="rotate(0.612111107869282 150.62494293351406 180.16693315099909)" visibility="inherit" oryx:fontSize="12"/></g><g class="children" style="overflow:hidden"/><g class="edge"/></g><g class="controls"><g class="dockers"/><g class="magnets"/></g></g><g id="_1B053790-C1AB-484B-A0F9-316C9378B5E5" bpmn2nodeid="_EB9F9947-5864-46FE-83AC-0C94CCEA934E"><g class="stencils"><g class="me"><g pointer-events="painted" bpmn2nodeid="_EB9F9947-5864-46FE-83AC-0C94CCEA934E"><path id="_1B053790-C1AB-484B-A0F9-316C9378B5E5_1" d="M427.41015625 182.5L561.25390625 182.5 " stroke="#000000" fill="none" stroke-width="2" stroke-linecap="round" stroke-linejoin="round" marker-start="url(#_1B053790-C1AB-484B-A0F9-316C9378B5E5start)" marker-end="url(#_1B053790-C1AB-484B-A0F9-316C9378B5E5end)"/></g><text id="_1B053790-C1AB-484B-A0F9-316C9378B5E5text_name" font-size="12" x="441.41015625" y="168.5" oryx:edgePosition="startTop" stroke-width="0pt" letter-spacing="-0.01px" fill="#000000" text-anchor="start" transform="rotate(360 427.41015625 182.5)" visibility="inherit" oryx:fontSize="12"/></g><g class="children" style="overflow:hidden"/><g class="edge"/></g><g class="controls"><g class="dockers"/><g class="magnets"/></g></g></g><text id="_FDFFFB94-F365-49CE-B513-F4F32B606266" style="stroke-width:1;fill:rgb(177,194,214);font-family:arial;font-weight:bold" font-size="12" onclick="ORYX.Plugins.CanvasTitle.openTextualAnalysis()" onmouseover="ORYX.Plugins.CanvasTitle.addToolTip('_FDFFFB94-F365-49CE-B513-F4F32B606266')" transform="translate(10, 20)">CreditCheckProcess v.1.0 (commercial-client-onboarding.CreditCheckProcess)</text></g></g></svg>