<svg xmlns="http://www.w3.org/2000/svg" xmlns:oryx="http://oryx-editor.org" id="_0E5888C1-DE4D-4745-9F0D-4AB46CC1969D" width="833.5" height="464" xmlns:xlink="http://www.w3.org/1999/xlink" xmlns:svg="http://www.w3.org/2000/svg"><defs><marker id="_3891D01B-2FD9-499A-B32E-5B2FBFFFA385start" refX="1" refY="5" markerUnits="userSpaceOnUse" markerWidth="17" markerHeight="11" orient="auto" fill="#000000" stroke="#000000"> 	  		<path id="_3891D01B-2FD9-499A-B32E-5B2FBFFFA385conditional" d="M 0 5 L 8 0 L 16 5 L 8 10 L 0 5" fill="white" stroke="#000000" stroke-width="1" display="none"/> 			<path id="_3891D01B-2FD9-499A-B32E-5B2FBFFFA385default" d="M 5 0 L 11 10" fill="white" stroke="#000000" stroke-width="1" display="none"/> 	  	</marker><marker id="_3891D01B-2FD9-499A-B32E-5B2FBFFFA385end" refX="15" refY="6" markerUnits="userSpaceOnUse" markerWidth="15" markerHeight="12" orient="auto" fill="#000000" stroke="#000000"> 	  		<path id="_3891D01B-2FD9-499A-B32E-5B2FBFFFA385frame2" d="M 0 1 L 15 6 L 0 11z" fill="#000000" stroke="#000000" stroke-linejoin="round" stroke-width="2"/> 	  	</marker><marker id="_25CE20C3-F95F-473A-8E7E-C01099A378BBstart" refX="1" refY="5" markerUnits="userSpaceOnUse" markerWidth="17" markerHeight="11" orient="auto" fill="#000000" stroke="#000000"> 	  		<path id="_25CE20C3-F95F-473A-8E7E-C01099A378BBconditional" d="M 0 5 L 8 0 L 16 5 L 8 10 L 0 5" fill="white" stroke="#000000" stroke-width="1" display="none"/> 			<path id="_25CE20C3-F95F-473A-8E7E-C01099A378BBdefault" d="M 5 0 L 11 10" fill="white" stroke="#000000" stroke-width="1" display="none"/> 	  	</marker><marker id="_25CE20C3-F95F-473A-8E7E-C01099A378BBend" refX="15" refY="6" markerUnits="userSpaceOnUse" markerWidth="15" markerHeight="12" orient="auto" fill="#000000" stroke="#000000"> 	  		<path id="_25CE20C3-F95F-473A-8E7E-C01099A378BBframe2" d="M 0 1 L 15 6 L 0 11z" fill="#000000" stroke="#000000" stroke-linejoin="round" stroke-width="2"/> 	  	</marker><marker id="_3AFD20F6-1401-4183-8D51-A4C7B1E403EEstart" refX="1" refY="5" markerUnits="userSpaceOnUse" markerWidth="17" markerHeight="11" orient="auto" fill="#000000" stroke="#000000"> 	  		<path id="_3AFD20F6-1401-4183-8D51-A4C7B1E403EEconditional" d="M 0 5 L 8 0 L 16 5 L 8 10 L 0 5" fill="white" stroke="#000000" stroke-width="1" display="none"/> 			<path id="_3AFD20F6-1401-4183-8D51-A4C7B1E403EEdefault" d="M 5 0 L 11 10" fill="white" stroke="#000000" stroke-width="1" display="none"/> 	  	</marker><marker id="_3AFD20F6-1401-4183-8D51-A4C7B1E403EEend" refX="15" refY="6" markerUnits="userSpaceOnUse" markerWidth="15" markerHeight="12" orient="auto" fill="#000000" stroke="#000000"> 	  		<path id="_3AFD20F6-1401-4183-8D51-A4C7B1E403EEframe2" d="M 0 1 L 15 6 L 0 11z" fill="#000000" stroke="#000000" stroke-linejoin="round" stroke-width="2"/> 	  	</marker><marker id="_05A51740-B5DA-4397-A047-5BC6950B843Dstart" refX="1" refY="5" markerUnits="userSpaceOnUse" markerWidth="17" markerHeight="11" orient="auto" fill="#000000" stroke="#000000"> 	  		<path id="_05A51740-B5DA-4397-A047-5BC6950B843Dconditional" d="M 0 5 L 8 0 L 16 5 L 8 10 L 0 5" fill="white" stroke="#000000" stroke-width="1" display="none"/> 			<path id="_05A51740-B5DA-4397-A047-5BC6950B843Ddefault" d="M 5 0 L 11 10" fill="white" stroke="#000000" stroke-width="1" display="none"/> 	  	</marker><marker id="_05A51740-B5DA-4397-A047-5BC6950B843Dend" refX="15" refY="6" markerUnits="userSpaceOnUse" markerWidth="15" markerHeight="12" orient="auto" fill="#000000" stroke="#000000"> 	  		<path id="_05A51740-B5DA-4397-A047-5BC6950B843Dframe2" d="M 0 1 L 15 6 L 0 11z" fill="#000000" stroke="#000000" stroke-linejoin="round" stroke-width="2"/> 	  	</marker><marker id="_5AC1FF80-783F-4F40-A929-45B0257BAB9Bstart" refX="1" refY="5" markerUnits="userSpaceOnUse" markerWidth="17" markerHeight="11" orient="auto" fill="#000000" stroke="#000000"> 	  		<path id="_5AC1FF80-783F-4F40-A929-45B0257BAB9Bconditional" d="M 0 5 L 8 0 L 16 5 L 8 10 L 0 5" fill="white" stroke="#000000" stroke-width="1" display="none"/> 			<path id="_5AC1FF80-783F-4F40-A929-45B0257BAB9Bdefault" d="M 5 0 L 11 10" fill="white" stroke="#000000" stroke-width="1" display="none"/> 	  	</marker><marker id="_5AC1FF80-783F-4F40-A929-45B0257BAB9Bend" refX="15" refY="6" markerUnits="userSpaceOnUse" markerWidth="15" markerHeight="12" orient="auto" fill="#000000" stroke="#000000"> 	  		<path id="_5AC1FF80-783F-4F40-A929-45B0257BAB9Bframe2" d="M 0 1 L 15 6 L 0 11z" fill="#000000" stroke="#000000" stroke-linejoin="round" stroke-width="2"/> 	  	</marker></defs><g stroke="none" font-family="Verdana, sans-serif" font-size-adjust="none" font-style="normal" font-variant="normal" font-weight="normal" line-heigth="normal" font-size="12"><g class="stencils" transform="translate(15.5, 16)"><g class="me"/><g class="children"><g id="_04185355-75CC-41CF-A85F-7EFD738E03CD" bpmn2nodeid="processStartEvent"><g class="stencils" transform="translate(165, 160)"><g class="me"><g pointer-events="fill" id="_04185355-75CC-41CF-A85F-7EFD738E03CD">        <defs id="_04185355-75CC-41CF-A85F-7EFD738E03CD__04185355-75CC-41CF-A85F-7EFD738E03CD_5"> 		<radialGradient id="_04185355-75CC-41CF-A85F-7EFD738E03CDbackground" cx="10%" cy="10%" r="100%" fx="10%" fy="10%"> 			<stop offset="0%" stop-color="#ffffff" stop-opacity="1" id="_04185355-75CC-41CF-A85F-7EFD738E03CD__04185355-75CC-41CF-A85F-7EFD738E03CD_6"/> 			<stop id="_04185355-75CC-41CF-A85F-7EFD738E03CDfill_el" offset="100%" stop-color="#9acd32" stop-opacity="1"/> 		</radialGradient> 	</defs> 	     <circle id="_04185355-75CC-41CF-A85F-7EFD738E03CDbg_frame" cx="15" cy="15" r="15" stroke="#000000" fill="url(#_04185355-75CC-41CF-A85F-7EFD738E03CDbackground) white" stroke-width="1" style="stroke-dasharray: 5.5, 3"/>      <circle id="_04185355-75CC-41CF-A85F-7EFD738E03CDframe" cx="15" cy="15" r="15" stroke="#000000" fill="none" stroke-width="1" display="inherit"/>  	<text font-size="11" id="_04185355-75CC-41CF-A85F-7EFD738E03CDtext_name" x="15" y="32" oryx:align="top center" stroke="black" stroke-width="0pt" letter-spacing="-0.01px" fill="#000000" text-anchor="middle" transform="rotate(0 15 32)" visibility="inherit" oryx:fontSize="11"/>   </g></g><g class="children" style="overflow:hidden"/><g class="edge"/></g><g class="controls"><g class="dockers"/><g class="magnets" transform="translate(165, 160)"><g pointer-events="all" display="none" transform="translate(7, 7)"><circle cx="8" cy="8" r="4" stroke="none" fill="red" fill-opacity="0.3"/></g></g></g></g><g id="_CA3224AC-A705-4EA1-AE71-7ED3AEC6FDA2" bpmn2nodeid="_8F6AEF26-5748-4959-8741-F98C921E0C5D"><g class="stencils" transform="translate(285, 135)"><g class="me"><g pointer-events="fill" oryx:minimumSize="50 40" id="_CA3224AC-A705-4EA1-AE71-7ED3AEC6FDA2">   	<defs id="_CA3224AC-A705-4EA1-AE71-7ED3AEC6FDA2__CA3224AC-A705-4EA1-AE71-7ED3AEC6FDA2_17"> 		<radialGradient id="_CA3224AC-A705-4EA1-AE71-7ED3AEC6FDA2background" cx="10%" cy="10%" r="100%" fx="10%" fy="10%"> 			<stop offset="0%" stop-color="#ffffff" stop-opacity="1" id="_CA3224AC-A705-4EA1-AE71-7ED3AEC6FDA2__CA3224AC-A705-4EA1-AE71-7ED3AEC6FDA2_18"/> 			<stop id="_CA3224AC-A705-4EA1-AE71-7ED3AEC6FDA2fill_el" offset="100%" stop-color="#fafad2" stop-opacity="1"/> 		</radialGradient> 		<radialGradient id="_CA3224AC-A705-4EA1-AE71-7ED3AEC6FDA2borderbackground" cx="10%" cy="10%" r="100%" fx="10%" fy="10%"> 			<stop offset="0%" stop-color="#ffffff" stop-opacity="1" id="_CA3224AC-A705-4EA1-AE71-7ED3AEC6FDA2__CA3224AC-A705-4EA1-AE71-7ED3AEC6FDA2_19"/> 			<stop id="_CA3224AC-A705-4EA1-AE71-7ED3AEC6FDA2fill_border" offset="100%" stop-color="#000000" stop-opacity="1" stroke="#000000"/> 		</radialGradient> 	</defs> 	 	<rect id="_CA3224AC-A705-4EA1-AE71-7ED3AEC6FDA2text_frame" oryx:anchors="bottom top right left" x="1" y="1" width="94" height="79" rx="10" ry="10" stroke="none" stroke-width="0" fill="none"/> 	<rect id="_CA3224AC-A705-4EA1-AE71-7ED3AEC6FDA2bg_frame" oryx:resize="vertical horizontal" x="0" y="0" width="100" height="80" rx="10" ry="10" stroke="#000000" stroke-width="1" fill="url(#_CA3224AC-A705-4EA1-AE71-7ED3AEC6FDA2background) #ffffcc"/> 		<text font-size="12" id="_CA3224AC-A705-4EA1-AE71-7ED3AEC6FDA2text_name" x="50" y="40" oryx:align="middle center" oryx:fittoelem="text_frame" stroke="black" text-anchor="middle" stroke-width="0pt" letter-spacing="-0.01px" fill="#000000" transform="rotate(0 50 40)" visibility="inherit" oryx:fontSize="12"><tspan x="50" y="40" dy="5" id="ext-gen1581">Get Creditscore</tspan></text>     <g id="_CA3224AC-A705-4EA1-AE71-7ED3AEC6FDA2manualTask" transform="scale(0.7,0.7) translate(8,8)" display="none">     	<path oryx:anchors="top left" id="_CA3224AC-A705-4EA1-AE71-7ED3AEC6FDA2frame" style="opacity:1;fill:none;fill-opacity:1;stroke-width:1" d="M0.5,3.751l4.083-3.25c0,0,11.166,0.083,12.083,0.083s-2.417,2.917-1.5,2.917     s11.667,0,12.584,0c1.166,1.708-0.168,3.167-0.834,3.667s0.875,1.917-1,4.417c-0.75,0.25,0.75,1.875-1.333,3.333     c-1.167,0.583,0.583,1.542-1.25,2.833c-1.167,0-20.833,0.083-20.833,0.083l-2-1.333V3.751z" stroke="#000000"/> 		<path id="_CA3224AC-A705-4EA1-AE71-7ED3AEC6FDA2frame2" oryx:anchors="top left" style="opacity:1;fill:none;stroke-width:2" d="M 13.5 7 L 27 7" stroke="#000000"/> 		<path id="_CA3224AC-A705-4EA1-AE71-7ED3AEC6FDA2frame3" oryx:anchors="top left" style="opacity:1;fill:none;stroke-width:2" d="M 13.5 11 L 26 11" stroke="#000000"/> 		<path id="_CA3224AC-A705-4EA1-AE71-7ED3AEC6FDA2frame4" oryx:anchors="top left" style="opacity:1;fill:none;stroke-width:1.5" d="M 14 14.5 L 25 14.5" stroke="#000000"/> 		<path id="_CA3224AC-A705-4EA1-AE71-7ED3AEC6FDA2frame5" oryx:anchors="top left" style="opacity:1;fill:none;stroke-width:1.5" d="M 8.2 3.1 L 15 3.1" stroke="#000000"/> 	</g> 	 	<g id="_CA3224AC-A705-4EA1-AE71-7ED3AEC6FDA2businessRuleTask" transform="scale(0.7,0.7) translate(8,8)" display="none"> 		<rect id="_CA3224AC-A705-4EA1-AE71-7ED3AEC6FDA2frame6" oryx:anchors="top left" x="0" y="0" width="22" height="4" style="opacity:1;fill:#B3B1B3;fill-opacity:1;" stroke="#000000"/> 		<rect id="_CA3224AC-A705-4EA1-AE71-7ED3AEC6FDA2frame7" oryx:anchors="top left" x="0" y="4" style="opacity:1;fill:none;" width="22" height="12" stroke="#000000"/> 		<path id="_CA3224AC-A705-4EA1-AE71-7ED3AEC6FDA2frame8" oryx:anchors="top left" style="opacity:1;fill:none;" d="M 0 10 L 22 10" stroke="#000000"/> 		<path id="_CA3224AC-A705-4EA1-AE71-7ED3AEC6FDA2frame9" oryx:anchors="top left" style="opacity:1; fill:none;" d="M 7 4 L 7 16" stroke="#000000"/> 	</g> 	 	<g id="_CA3224AC-A705-4EA1-AE71-7ED3AEC6FDA2scriptTask" transform="scale(0.7,0.7) translate(8,8)" display="inherit"> 		<path oryx:anchors="top left" id="_CA3224AC-A705-4EA1-AE71-7ED3AEC6FDA2frame10" style="opacity:1;fill:none;" stroke="#000000" d="M6.402,0.5h14.5c0,0-5.833,2.833-5.833,5.583s4.417,6,4.417,9.167    s-4.167,5.083-4.167,5.083H0.235c0,0,5-2.667,5-5s-4.583-6.75-4.583-9.25S6.402,0.5,6.402,0.5z"/> 		<path oryx:anchors="top left" id="_CA3224AC-A705-4EA1-AE71-7ED3AEC6FDA2frame11" style="opacity:1;fill:none;stroke-width:1.5" d="M 3.5 4.5 L 13.5 4.5" stroke="#000000"/> 		<path oryx:anchors="top left" id="_CA3224AC-A705-4EA1-AE71-7ED3AEC6FDA2frame12" style="opacity:1;fill:none;stroke-width:1.5" d="M 3.8 8.5 L 13.8 8.5" stroke="#000000"/> 		<path oryx:anchors="top left" id="_CA3224AC-A705-4EA1-AE71-7ED3AEC6FDA2frame13" style="opacity:1;fill:none;stroke-width:1.5" d="M 6.3 12.5 L 16.3 12.5" stroke="#000000"/> 		<path oryx:anchors="top left" id="_CA3224AC-A705-4EA1-AE71-7ED3AEC6FDA2frame14" style="opacity:1;fill:none;stroke-width:1.5" d="M 6.5 16.5 L 16.5 16.5" stroke="#000000"/> 	</g> 	 	<g id="_CA3224AC-A705-4EA1-AE71-7ED3AEC6FDA2userTask" transform="scale(0.7,0.7) translate(8,8)" display="none"> 		<path id="_CA3224AC-A705-4EA1-AE71-7ED3AEC6FDA2frame15" oryx:anchors="top left" style="opacity:1;fill:#F4F6F7" stroke="#000000" d="M0.585,24.167h24.083v-7.833c0,0-2.333-3.917-7.083-5.167h-9.25    c-4.417,1.333-7.833,5.75-7.833,5.75L0.585,24.167z"/> 		<path id="_CA3224AC-A705-4EA1-AE71-7ED3AEC6FDA2frame16" oryx:anchors="top left" style="opacity:1;fill:none" d="M 6 20 L 6 24" stroke="#000000"/> 		<path id="_CA3224AC-A705-4EA1-AE71-7ED3AEC6FDA2frame17" oryx:anchors="top left" style="opacity:1;fill:none" d="M 20 20 L 20 24" stroke="#000000"/> 		<circle id="_CA3224AC-A705-4EA1-AE71-7ED3AEC6FDA2frame18" oryx:anchors="top left" fill="black" cx="13.002" cy="5.916" r="5.417" stroke="#000000"/> 		<path id="_CA3224AC-A705-4EA1-AE71-7ED3AEC6FDA2frame19" oryx:anchors="top left" style="opacity:1;fill:#F0EFF0;" stroke="#000000" d="M8.043,7.083c0,0,2.814-2.426,5.376-1.807s4.624-0.693,4.624-0.693    c0.25,1.688,0.042,3.75-1.458,5.584c0,0,1.083,0.75,1.083,1.5s0.125,1.875-1,3s-5.5,1.25-6.75,0S8.668,12.834,8.668,12    s0.583-1.25,1.25-1.917C8.835,9.5,7.419,7.708,8.043,7.083z"/> 	</g> 	 	<g id="_CA3224AC-A705-4EA1-AE71-7ED3AEC6FDA2serviceTask" transform="scale(0.7,0.7) translate(8,8)" display="none"> 		<polygon oryx:anchors="top left" id="_CA3224AC-A705-4EA1-AE71-7ED3AEC6FDA2frame20" style="opacity:1;fill:#ffffff" stroke="#000000" points="15.392,5.064 17.954,2.502 20.347,4.895 17.786,7.455     18.729,9.732 22.353,9.732 22.353,13.115 18.731,13.115 17.788,15.392 20.351,17.955 17.958,20.347 15.397,17.786 13.12,18.729     13.12,22.353 9.737,22.353 9.737,18.731 7.46,17.788 4.897,20.35 2.506,17.958 5.066,15.397 4.124,13.12 0.5,13.12 0.5,9.737     4.121,9.737 5.065,7.461 2.503,4.898 4.895,2.506 7.455,5.066 9.732,4.125 9.732,0.5 13.116,0.5 13.116,4.121 "/> 		<circle oryx:anchors="top left" id="_CA3224AC-A705-4EA1-AE71-7ED3AEC6FDA2frame21" style="opacity:1;fill:none" stroke="#000000" cx="11.427" cy="11.426" r="3.714"/> 		<polygon oryx:anchors="top left" id="_CA3224AC-A705-4EA1-AE71-7ED3AEC6FDA2frame22" style="opacity:1;fill:#ffffff" stroke="#000000" points="21.392,11.064 23.954,8.502 26.347,10.895 23.786,13.455     24.729,15.732 28.353,15.732 28.353,19.115 24.731,19.115 23.788,21.392 26.351,23.955 23.958,26.347 21.397,23.786 19.12,24.729     19.12,28.353 15.737,28.353 15.737,24.731 13.46,23.788 10.897,26.35 8.506,23.958 11.066,21.397 10.124,19.12 6.5,19.12     6.5,15.737 10.121,15.737 11.065,13.461 8.503,10.898 10.895,8.506 13.455,11.066 15.732,10.125 15.732,6.5 19.116,6.5     19.116,10.121 "/> 		<circle oryx:anchors="top left" id="_CA3224AC-A705-4EA1-AE71-7ED3AEC6FDA2frame23" style="opacity:1;fill:none;" stroke="#000000" cx="17.427" cy="17.426" r="3.714"/> 	</g> 	 	<g id="_CA3224AC-A705-4EA1-AE71-7ED3AEC6FDA2sendTask" display="none"> 		<path id="_CA3224AC-A705-4EA1-AE71-7ED3AEC6FDA2stframe24" oryx:anchors="left top" stroke="#FFFFFF" fill="black" stroke-width="1" d="M8,11 L8,21 L24,21 L24,11 L16,17z"/> 		<path id="_CA3224AC-A705-4EA1-AE71-7ED3AEC6FDA2stframe25" oryx:anchors="left top" stroke="#FFFFFF" fill="black" stroke-width="1" d="M7,10 L16,17 L25 10z"/> 	</g> 	 	<g id="_CA3224AC-A705-4EA1-AE71-7ED3AEC6FDA2receiveTask" display="none"> 		<path id="_CA3224AC-A705-4EA1-AE71-7ED3AEC6FDA2frame26" oryx:anchors="left top" stroke="#000000" fill="none" stroke-width="1" d="M8,11 L8,21 L24,21 L24,11z M8,11 L16,17 L24,11"/> 	</g> 	 	<g id="_CA3224AC-A705-4EA1-AE71-7ED3AEC6FDA2none" display="inherit"/>  	<g id="_CA3224AC-A705-4EA1-AE71-7ED3AEC6FDA2sequential" display="none">         <path oryx:anchors="bottom" fill="none" stroke="#000000" stroke-width="2" d="M46,76h10M46,72h10 M46,68h10" id="_CA3224AC-A705-4EA1-AE71-7ED3AEC6FDA2__CA3224AC-A705-4EA1-AE71-7ED3AEC6FDA2_20"/>     </g>   </g></g><g class="children" style="overflow:hidden"/><g class="edge"/></g><g class="controls"><g class="dockers"/><g class="magnets" transform="translate(285, 135)"><g pointer-events="all" display="none" transform="translate(-7, 12)"><circle cx="8" cy="8" r="4" stroke="none" fill="red" fill-opacity="0.3"/></g><g pointer-events="all" display="none" transform="translate(-7, 32)"><circle cx="8" cy="8" r="4" stroke="none" fill="red" fill-opacity="0.3"/></g><g pointer-events="all" display="none" transform="translate(-7, 52)"><circle cx="8" cy="8" r="4" stroke="none" fill="red" fill-opacity="0.3"/></g><g pointer-events="all" display="none" transform="translate(17, 71)"><circle cx="8" cy="8" r="4" stroke="none" fill="red" fill-opacity="0.3"/></g><g pointer-events="all" display="none" transform="translate(42, 71)"><circle cx="8" cy="8" r="4" stroke="none" fill="red" fill-opacity="0.3"/></g><g pointer-events="all" display="none" transform="translate(67, 71)"><circle cx="8" cy="8" r="4" stroke="none" fill="red" fill-opacity="0.3"/></g><g pointer-events="all" display="none" transform="translate(91, 12)"><circle cx="8" cy="8" r="4" stroke="none" fill="red" fill-opacity="0.3"/></g><g pointer-events="all" display="none" transform="translate(91, 32)"><circle cx="8" cy="8" r="4" stroke="none" fill="red" fill-opacity="0.3"/></g><g pointer-events="all" display="none" transform="translate(91, 52)"><circle cx="8" cy="8" r="4" stroke="none" fill="red" fill-opacity="0.3"/></g><g pointer-events="all" display="none" transform="translate(17, -7)"><circle cx="8" cy="8" r="4" stroke="none" fill="red" fill-opacity="0.3"/></g><g pointer-events="all" display="none" transform="translate(42, -7)"><circle cx="8" cy="8" r="4" stroke="none" fill="red" fill-opacity="0.3"/></g><g pointer-events="all" display="none" transform="translate(67, -7)"><circle cx="8" cy="8" r="4" stroke="none" fill="red" fill-opacity="0.3"/></g><g pointer-events="all" display="none" transform="translate(42, 32)"><circle cx="8" cy="8" r="4" stroke="none" fill="red" fill-opacity="0.3"/></g></g></g></g><g id="_86B969BC-C32E-4358-B480-E67455353F4B" bpmn2nodeid="_E2892CAC-5C5A-498D-A73B-9F552552CC55"><g class="stencils" transform="translate(765, 165)"><g class="me"><g pointer-events="fill" id="_86B969BC-C32E-4358-B480-E67455353F4B">      <defs id="_86B969BC-C32E-4358-B480-E67455353F4B__86B969BC-C32E-4358-B480-E67455353F4B_5"> 		<radialGradient id="_86B969BC-C32E-4358-B480-E67455353F4Bbackground" cx="10%" cy="10%" r="100%" fx="10%" fy="10%"> 			<stop offset="0%" stop-color="#ffffff" stop-opacity="1" id="_86B969BC-C32E-4358-B480-E67455353F4B__86B969BC-C32E-4358-B480-E67455353F4B_6"/> 			<stop id="_86B969BC-C32E-4358-B480-E67455353F4Bfill_el" offset="100%" stop-color="#ff6347" stop-opacity="1"/> 		</radialGradient> 	</defs> 	     <circle id="_86B969BC-C32E-4358-B480-E67455353F4Bbg_frame" cx="14" cy="14" r="14" stroke="#000000" fill="url(#_86B969BC-C32E-4358-B480-E67455353F4Bbackground) white" stroke-width="3"/> 	<text font-size="11" id="_86B969BC-C32E-4358-B480-E67455353F4Btext_name" x="14" y="30" oryx:align="top center" stroke="black" stroke-width="0pt" letter-spacing="-0.01px" fill="#000000" text-anchor="middle" transform="rotate(0 14 30)" visibility="inherit" oryx:fontSize="11"/>   </g></g><g class="children" style="overflow:hidden"/><g class="edge"/></g><g class="controls"><g class="dockers"/><g class="magnets" transform="translate(765, 165)"><g pointer-events="all" display="none" transform="translate(6, 6)"><circle cx="8" cy="8" r="4" stroke="none" fill="red" fill-opacity="0.3"/></g></g></g></g><g id="_2273E01A-77D5-4406-B689-CD388FC3A932" bpmn2nodeid="_E9B7E294-91BE-41AF-A89F-09813843602B"><g class="stencils" transform="translate(512, 155)"><g class="me"><g id="_2273E01A-77D5-4406-B689-CD388FC3A932">        <defs id="_2273E01A-77D5-4406-B689-CD388FC3A932__2273E01A-77D5-4406-B689-CD388FC3A932_4"> 		<radialGradient id="_2273E01A-77D5-4406-B689-CD388FC3A932background" cx="10%" cy="10%" r="100%" fx="10%" fy="10%"> 			<stop offset="0%" stop-color="#ffffff" stop-opacity="1" id="_2273E01A-77D5-4406-B689-CD388FC3A932__2273E01A-77D5-4406-B689-CD388FC3A932_5"/> 			<stop id="_2273E01A-77D5-4406-B689-CD388FC3A932fill_el" offset="100%" stop-color="#f0e68c" stop-opacity="1"/> 		</radialGradient> 		<radialGradient id="_2273E01A-77D5-4406-B689-CD388FC3A932borderbackground" cx="10%" cy="10%" r="100%" fx="10%" fy="10%"> 			<stop offset="0%" stop-color="#ffffff" stop-opacity="1" id="_2273E01A-77D5-4406-B689-CD388FC3A932__2273E01A-77D5-4406-B689-CD388FC3A932_6"/> 			<stop id="_2273E01A-77D5-4406-B689-CD388FC3A932fill_border" offset="100%" stop-color="#a67f00" stop-opacity="1" stroke="#a67f00"/> 		</radialGradient> 	</defs> 	     <path d=" M0 20.5  L20.5 0  L40 20.5  L20.5 40  z" id="_2273E01A-77D5-4406-B689-CD388FC3A932bg_frame" fill="url(#_2273E01A-77D5-4406-B689-CD388FC3A932background) white" style="stroke-width:1" stroke="#a67f00"/>     <g id="_2273E01A-77D5-4406-B689-CD388FC3A932frame" stroke="#a67f00">       <path id="_2273E01A-77D5-4406-B689-CD388FC3A932frame2" d=" M13.25 12.05  L17.25 12.05  L27.65 28.95  L23.75 28.95  z" style="stroke-width:1" stroke="#a67f00" fill="url(#_2273E01A-77D5-4406-B689-CD388FC3A932borderbackground)"/>       <path id="_2273E01A-77D5-4406-B689-CD388FC3A932frame3" d=" M13.25 28.95  L23.75 12.05  L27.65 12.05  L17.25 28.95  z" style="stroke-width:1" stroke="#a67f00" fill="url(#_2273E01A-77D5-4406-B689-CD388FC3A932borderbackground)"/>     </g> 	 	<text id="_2273E01A-77D5-4406-B689-CD388FC3A932text_name" x="30.5" y="30.5" oryx:align="left top" stroke-width="0pt" letter-spacing="-0.01px" fill="#000000" text-anchor="start" transform="rotate(0 30.5 30.5)" visibility="inherit" oryx:fontSize="12"><tspan x="30.5" y="30.5" dy="12" id="ext-gen4165">CreditScore OK</tspan></text> 	   </g></g><g class="children" style="overflow:hidden"/><g class="edge"/></g><g class="controls"><g class="dockers"/><g class="magnets" transform="translate(512, 155)"><g pointer-events="all" display="none" transform="translate(12.5, 12.5)"><circle cx="8" cy="8" r="4" stroke="none" fill="red" fill-opacity="0.3"/></g></g></g></g><g id="_697B334C-F32B-4846-A778-94EE990FF603" bpmn2nodeid="_83EA0DB2-5472-435B-8912-A2019FA40A52"><g class="stencils" transform="translate(482, 343)"><g class="me"><g pointer-events="fill" oryx:minimumSize="50 40" id="_697B334C-F32B-4846-A778-94EE990FF603">   	<defs id="_697B334C-F32B-4846-A778-94EE990FF603__697B334C-F32B-4846-A778-94EE990FF603_17"> 		<radialGradient id="_697B334C-F32B-4846-A778-94EE990FF603background" cx="10%" cy="10%" r="100%" fx="10%" fy="10%"> 			<stop offset="0%" stop-color="#ffffff" stop-opacity="1" id="_697B334C-F32B-4846-A778-94EE990FF603__697B334C-F32B-4846-A778-94EE990FF603_18"/> 			<stop id="_697B334C-F32B-4846-A778-94EE990FF603fill_el" offset="100%" stop-color="#fafad2" stop-opacity="1"/> 		</radialGradient> 		<radialGradient id="_697B334C-F32B-4846-A778-94EE990FF603borderbackground" cx="10%" cy="10%" r="100%" fx="10%" fy="10%"> 			<stop offset="0%" stop-color="#ffffff" stop-opacity="1" id="_697B334C-F32B-4846-A778-94EE990FF603__697B334C-F32B-4846-A778-94EE990FF603_19"/> 			<stop id="_697B334C-F32B-4846-A778-94EE990FF603fill_border" offset="100%" stop-color="#000000" stop-opacity="1" stroke="#000000"/> 		</radialGradient> 	</defs> 	 	<rect id="_697B334C-F32B-4846-A778-94EE990FF603text_frame" oryx:anchors="bottom top right left" x="1" y="1" width="94" height="79" rx="10" ry="10" stroke="none" stroke-width="0" fill="none"/> 	<rect id="_697B334C-F32B-4846-A778-94EE990FF603bg_frame" oryx:resize="vertical horizontal" x="0" y="0" width="100" height="80" rx="10" ry="10" stroke="#000000" stroke-width="1" fill="url(#_697B334C-F32B-4846-A778-94EE990FF603background) #ffffcc"/> 		<text font-size="12" id="_697B334C-F32B-4846-A778-94EE990FF603text_name" x="50" y="40" oryx:align="middle center" oryx:fittoelem="text_frame" stroke="black" text-anchor="middle" stroke-width="0pt" letter-spacing="-0.01px" fill="#000000" transform="rotate(0 50 40)" visibility="inherit" oryx:fontSize="12"><tspan x="50" y="40" dy="-13">Credit Score </tspan><tspan x="50" y="40" dy="-1">not OK. </tspan><tspan x="50" y="40" dy="11">Contact </tspan><tspan x="50" y="40" dy="23">customer.</tspan></text>     <g id="_697B334C-F32B-4846-A778-94EE990FF603manualTask" transform="scale(0.7,0.7) translate(8,8)" display="none">     	<path oryx:anchors="top left" id="_697B334C-F32B-4846-A778-94EE990FF603frame" style="opacity:1;fill:none;fill-opacity:1;stroke-width:1" d="M0.5,3.751l4.083-3.25c0,0,11.166,0.083,12.083,0.083s-2.417,2.917-1.5,2.917     s11.667,0,12.584,0c1.166,1.708-0.168,3.167-0.834,3.667s0.875,1.917-1,4.417c-0.75,0.25,0.75,1.875-1.333,3.333     c-1.167,0.583,0.583,1.542-1.25,2.833c-1.167,0-20.833,0.083-20.833,0.083l-2-1.333V3.751z" stroke="#000000"/> 		<path id="_697B334C-F32B-4846-A778-94EE990FF603frame2" oryx:anchors="top left" style="opacity:1;fill:none;stroke-width:2" d="M 13.5 7 L 27 7" stroke="#000000"/> 		<path id="_697B334C-F32B-4846-A778-94EE990FF603frame3" oryx:anchors="top left" style="opacity:1;fill:none;stroke-width:2" d="M 13.5 11 L 26 11" stroke="#000000"/> 		<path id="_697B334C-F32B-4846-A778-94EE990FF603frame4" oryx:anchors="top left" style="opacity:1;fill:none;stroke-width:1.5" d="M 14 14.5 L 25 14.5" stroke="#000000"/> 		<path id="_697B334C-F32B-4846-A778-94EE990FF603frame5" oryx:anchors="top left" style="opacity:1;fill:none;stroke-width:1.5" d="M 8.2 3.1 L 15 3.1" stroke="#000000"/> 	</g> 	 	<g id="_697B334C-F32B-4846-A778-94EE990FF603businessRuleTask" transform="scale(0.7,0.7) translate(8,8)" display="none"> 		<rect id="_697B334C-F32B-4846-A778-94EE990FF603frame6" oryx:anchors="top left" x="0" y="0" width="22" height="4" style="opacity:1;fill:#B3B1B3;fill-opacity:1;" stroke="#000000"/> 		<rect id="_697B334C-F32B-4846-A778-94EE990FF603frame7" oryx:anchors="top left" x="0" y="4" style="opacity:1;fill:none;" width="22" height="12" stroke="#000000"/> 		<path id="_697B334C-F32B-4846-A778-94EE990FF603frame8" oryx:anchors="top left" style="opacity:1;fill:none;" d="M 0 10 L 22 10" stroke="#000000"/> 		<path id="_697B334C-F32B-4846-A778-94EE990FF603frame9" oryx:anchors="top left" style="opacity:1; fill:none;" d="M 7 4 L 7 16" stroke="#000000"/> 	</g> 	 	<g id="_697B334C-F32B-4846-A778-94EE990FF603scriptTask" transform="scale(0.7,0.7) translate(8,8)" display="none"> 		<path oryx:anchors="top left" id="_697B334C-F32B-4846-A778-94EE990FF603frame10" style="opacity:1;fill:none;" stroke="#000000" d="M6.402,0.5h14.5c0,0-5.833,2.833-5.833,5.583s4.417,6,4.417,9.167    s-4.167,5.083-4.167,5.083H0.235c0,0,5-2.667,5-5s-4.583-6.75-4.583-9.25S6.402,0.5,6.402,0.5z"/> 		<path oryx:anchors="top left" id="_697B334C-F32B-4846-A778-94EE990FF603frame11" style="opacity:1;fill:none;stroke-width:1.5" d="M 3.5 4.5 L 13.5 4.5" stroke="#000000"/> 		<path oryx:anchors="top left" id="_697B334C-F32B-4846-A778-94EE990FF603frame12" style="opacity:1;fill:none;stroke-width:1.5" d="M 3.8 8.5 L 13.8 8.5" stroke="#000000"/> 		<path oryx:anchors="top left" id="_697B334C-F32B-4846-A778-94EE990FF603frame13" style="opacity:1;fill:none;stroke-width:1.5" d="M 6.3 12.5 L 16.3 12.5" stroke="#000000"/> 		<path oryx:anchors="top left" id="_697B334C-F32B-4846-A778-94EE990FF603frame14" style="opacity:1;fill:none;stroke-width:1.5" d="M 6.5 16.5 L 16.5 16.5" stroke="#000000"/> 	</g> 	 	<g id="_697B334C-F32B-4846-A778-94EE990FF603userTask" transform="scale(0.7,0.7) translate(8,8)" display="inherit"> 		<path id="_697B334C-F32B-4846-A778-94EE990FF603frame15" oryx:anchors="top left" style="opacity:1;fill:#F4F6F7" stroke="#000000" d="M0.585,24.167h24.083v-7.833c0,0-2.333-3.917-7.083-5.167h-9.25    c-4.417,1.333-7.833,5.75-7.833,5.75L0.585,24.167z"/> 		<path id="_697B334C-F32B-4846-A778-94EE990FF603frame16" oryx:anchors="top left" style="opacity:1;fill:none" d="M 6 20 L 6 24" stroke="#000000"/> 		<path id="_697B334C-F32B-4846-A778-94EE990FF603frame17" oryx:anchors="top left" style="opacity:1;fill:none" d="M 20 20 L 20 24" stroke="#000000"/> 		<circle id="_697B334C-F32B-4846-A778-94EE990FF603frame18" oryx:anchors="top left" fill="black" cx="13.002" cy="5.916" r="5.417" stroke="#000000"/> 		<path id="_697B334C-F32B-4846-A778-94EE990FF603frame19" oryx:anchors="top left" style="opacity:1;fill:#F0EFF0;" stroke="#000000" d="M8.043,7.083c0,0,2.814-2.426,5.376-1.807s4.624-0.693,4.624-0.693    c0.25,1.688,0.042,3.75-1.458,5.584c0,0,1.083,0.75,1.083,1.5s0.125,1.875-1,3s-5.5,1.25-6.75,0S8.668,12.834,8.668,12    s0.583-1.25,1.25-1.917C8.835,9.5,7.419,7.708,8.043,7.083z"/> 	</g> 	 	<g id="_697B334C-F32B-4846-A778-94EE990FF603serviceTask" transform="scale(0.7,0.7) translate(8,8)" display="none"> 		<polygon oryx:anchors="top left" id="_697B334C-F32B-4846-A778-94EE990FF603frame20" style="opacity:1;fill:#ffffff" stroke="#000000" points="15.392,5.064 17.954,2.502 20.347,4.895 17.786,7.455     18.729,9.732 22.353,9.732 22.353,13.115 18.731,13.115 17.788,15.392 20.351,17.955 17.958,20.347 15.397,17.786 13.12,18.729     13.12,22.353 9.737,22.353 9.737,18.731 7.46,17.788 4.897,20.35 2.506,17.958 5.066,15.397 4.124,13.12 0.5,13.12 0.5,9.737     4.121,9.737 5.065,7.461 2.503,4.898 4.895,2.506 7.455,5.066 9.732,4.125 9.732,0.5 13.116,0.5 13.116,4.121 "/> 		<circle oryx:anchors="top left" id="_697B334C-F32B-4846-A778-94EE990FF603frame21" style="opacity:1;fill:none" stroke="#000000" cx="11.427" cy="11.426" r="3.714"/> 		<polygon oryx:anchors="top left" id="_697B334C-F32B-4846-A778-94EE990FF603frame22" style="opacity:1;fill:#ffffff" stroke="#000000" points="21.392,11.064 23.954,8.502 26.347,10.895 23.786,13.455     24.729,15.732 28.353,15.732 28.353,19.115 24.731,19.115 23.788,21.392 26.351,23.955 23.958,26.347 21.397,23.786 19.12,24.729     19.12,28.353 15.737,28.353 15.737,24.731 13.46,23.788 10.897,26.35 8.506,23.958 11.066,21.397 10.124,19.12 6.5,19.12     6.5,15.737 10.121,15.737 11.065,13.461 8.503,10.898 10.895,8.506 13.455,11.066 15.732,10.125 15.732,6.5 19.116,6.5     19.116,10.121 "/> 		<circle oryx:anchors="top left" id="_697B334C-F32B-4846-A778-94EE990FF603frame23" style="opacity:1;fill:none;" stroke="#000000" cx="17.427" cy="17.426" r="3.714"/> 	</g> 	 	<g id="_697B334C-F32B-4846-A778-94EE990FF603sendTask" display="none"> 		<path id="_697B334C-F32B-4846-A778-94EE990FF603stframe24" oryx:anchors="left top" stroke="#FFFFFF" fill="black" stroke-width="1" d="M8,11 L8,21 L24,21 L24,11 L16,17z"/> 		<path id="_697B334C-F32B-4846-A778-94EE990FF603stframe25" oryx:anchors="left top" stroke="#FFFFFF" fill="black" stroke-width="1" d="M7,10 L16,17 L25 10z"/> 	</g> 	 	<g id="_697B334C-F32B-4846-A778-94EE990FF603receiveTask" display="none"> 		<path id="_697B334C-F32B-4846-A778-94EE990FF603frame26" oryx:anchors="left top" stroke="#000000" fill="none" stroke-width="1" d="M8,11 L8,21 L24,21 L24,11z M8,11 L16,17 L24,11"/> 	</g> 	 	<g id="_697B334C-F32B-4846-A778-94EE990FF603none" display="none"/>  	<g id="_697B334C-F32B-4846-A778-94EE990FF603sequential" display="none">         <path oryx:anchors="bottom" fill="none" stroke="#000000" stroke-width="2" d="M46,76h10M46,72h10 M46,68h10" id="_697B334C-F32B-4846-A778-94EE990FF603__697B334C-F32B-4846-A778-94EE990FF603_20"/>     </g>   </g></g><g class="children" style="overflow:hidden"/><g class="edge"/></g><g class="controls"><g class="dockers"/><g class="magnets" transform="translate(482, 343)"><g pointer-events="all" display="none" transform="translate(-7, 12)"><circle cx="8" cy="8" r="4" stroke="none" fill="red" fill-opacity="0.3"/></g><g pointer-events="all" display="none" transform="translate(-7, 32)"><circle cx="8" cy="8" r="4" stroke="none" fill="red" fill-opacity="0.3"/></g><g pointer-events="all" display="none" transform="translate(-7, 52)"><circle cx="8" cy="8" r="4" stroke="none" fill="red" fill-opacity="0.3"/></g><g pointer-events="all" display="none" transform="translate(17, 71)"><circle cx="8" cy="8" r="4" stroke="none" fill="red" fill-opacity="0.3"/></g><g pointer-events="all" display="none" transform="translate(42, 71)"><circle cx="8" cy="8" r="4" stroke="none" fill="red" fill-opacity="0.3"/></g><g pointer-events="all" display="none" transform="translate(67, 71)"><circle cx="8" cy="8" r="4" stroke="none" fill="red" fill-opacity="0.3"/></g><g pointer-events="all" display="none" transform="translate(91, 12)"><circle cx="8" cy="8" r="4" stroke="none" fill="red" fill-opacity="0.3"/></g><g pointer-events="all" display="none" transform="translate(91, 32)"><circle cx="8" cy="8" r="4" stroke="none" fill="red" fill-opacity="0.3"/></g><g pointer-events="all" display="none" transform="translate(91, 52)"><circle cx="8" cy="8" r="4" stroke="none" fill="red" fill-opacity="0.3"/></g><g pointer-events="all" display="none" transform="translate(17, -7)"><circle cx="8" cy="8" r="4" stroke="none" fill="red" fill-opacity="0.3"/></g><g pointer-events="all" display="none" transform="translate(42, -7)"><circle cx="8" cy="8" r="4" stroke="none" fill="red" fill-opacity="0.3"/></g><g pointer-events="all" display="none" transform="translate(67, -7)"><circle cx="8" cy="8" r="4" stroke="none" fill="red" fill-opacity="0.3"/></g><g pointer-events="all" display="none" transform="translate(42, 32)"><circle cx="8" cy="8" r="4" stroke="none" fill="red" fill-opacity="0.3"/></g></g></g></g><g id="_B45EEC6A-40D1-40F6-8271-F7AD40642F1A" bpmn2nodeid="_E628DA05-C970-46BE-A069-89555A565110"><g class="stencils" transform="translate(681, 369)"><g class="me"><g pointer-events="fill" id="_B45EEC6A-40D1-40F6-8271-F7AD40642F1A">      <defs id="_B45EEC6A-40D1-40F6-8271-F7AD40642F1A__B45EEC6A-40D1-40F6-8271-F7AD40642F1A_5"> 		<radialGradient id="_B45EEC6A-40D1-40F6-8271-F7AD40642F1Abackground" cx="10%" cy="10%" r="100%" fx="10%" fy="10%"> 			<stop offset="0%" stop-color="#ffffff" stop-opacity="1" id="_B45EEC6A-40D1-40F6-8271-F7AD40642F1A__B45EEC6A-40D1-40F6-8271-F7AD40642F1A_6"/> 			<stop id="_B45EEC6A-40D1-40F6-8271-F7AD40642F1Afill_el" offset="100%" stop-color="#ff6347" stop-opacity="1"/> 		</radialGradient> 	</defs> 	     <circle id="_B45EEC6A-40D1-40F6-8271-F7AD40642F1Abg_frame" cx="14" cy="14" r="14" stroke="#000000" fill="url(#_B45EEC6A-40D1-40F6-8271-F7AD40642F1Abackground) white" stroke-width="3"/> 	<text font-size="11" id="_B45EEC6A-40D1-40F6-8271-F7AD40642F1Atext_name" x="14" y="30" oryx:align="top center" stroke="black" stroke-width="0pt" letter-spacing="-0.01px" fill="#000000" text-anchor="middle" transform="rotate(0 14 30)" visibility="inherit" oryx:fontSize="11"/>   </g></g><g class="children" style="overflow:hidden"/><g class="edge"/></g><g class="controls"><g class="dockers"/><g class="magnets" transform="translate(681, 369)"><g pointer-events="all" display="none" transform="translate(6, 6)"><circle cx="8" cy="8" r="4" stroke="none" fill="red" fill-opacity="0.3"/></g></g></g></g></g><g class="edge"><g id="_3891D01B-2FD9-499A-B32E-5B2FBFFFA385" bpmn2nodeid="_A0AC9768-26BC-4719-A4F5-19655B9D7256"><g class="stencils"><g class="me"><g pointer-events="painted" bpmn2nodeid="_34C73AD4-3C5F-471F-A053-803DF2F22D26"><path id="_3891D01B-2FD9-499A-B32E-5B2FBFFFA385_1" d="M195.53125 175L284.3515625 175 " stroke="#000000" fill="none" stroke-width="2" stroke-linecap="round" stroke-linejoin="round" marker-start="url(#_3891D01B-2FD9-499A-B32E-5B2FBFFFA385start)" marker-end="url(#_3891D01B-2FD9-499A-B32E-5B2FBFFFA385end)"/></g><text id="_3891D01B-2FD9-499A-B32E-5B2FBFFFA385text_name" font-size="12" x="209.53125" y="161" oryx:edgePosition="startTop" stroke-width="0pt" letter-spacing="-0.01px" fill="#000000" text-anchor="start" transform="rotate(360 195.53125 175)" visibility="inherit" oryx:fontSize="12"/></g><g class="children" style="overflow:hidden"/><g class="edge"/></g><g class="controls"><g class="dockers"/><g class="magnets"/></g></g><g id="_25CE20C3-F95F-473A-8E7E-C01099A378BB" bpmn2nodeid="_88E0D2BE-AAE5-4C6E-94D6-135470821A9C"><g class="stencils"><g class="me"><g pointer-events="painted" bpmn2nodeid="_88E0D2BE-AAE5-4C6E-94D6-135470821A9C"><path id="_25CE20C3-F95F-473A-8E7E-C01099A378BB_1" d="M385.37499679540076 175.1275316374567L511.44140945459924 175.4466871125433 " stroke="#000000" fill="none" stroke-width="2" stroke-linecap="round" stroke-linejoin="round" marker-start="url(#_25CE20C3-F95F-473A-8E7E-C01099A378BBstart)" marker-end="url(#_25CE20C3-F95F-473A-8E7E-C01099A378BBend)"/></g><text id="_25CE20C3-F95F-473A-8E7E-C01099A378BBtext_name" font-size="12" x="399.37499679540076" y="161.1275316374567" oryx:edgePosition="startTop" stroke-width="0pt" letter-spacing="-0.01px" fill="#000000" text-anchor="start" transform="rotate(0.14505229647164697 385.37499679540076 175.1275316374567)" visibility="inherit" oryx:fontSize="12"/></g><g class="children" style="overflow:hidden"/><g class="edge"/></g><g class="controls"><g class="dockers"/><g class="magnets"/></g></g><g id="_3AFD20F6-1401-4183-8D51-A4C7B1E403EE" bpmn2nodeid="_33DE4415-A569-42AC-AB67-74259E4BD4F7"><g class="stencils"><g class="me"><g pointer-events="painted" bpmn2nodeid="_33DE4415-A569-42AC-AB67-74259E4BD4F7"><path id="_3AFD20F6-1401-4183-8D51-A4C7B1E403EE_1" d="M551.7948210875204 175.7739629769019L764.5196320374796 178.7943963980981 " stroke="#000000" fill="none" stroke-width="2" stroke-linecap="round" stroke-linejoin="round" marker-start="url(#_3AFD20F6-1401-4183-8D51-A4C7B1E403EEstart)" marker-end="url(#_3AFD20F6-1401-4183-8D51-A4C7B1E403EEend)"/></g><text id="_3AFD20F6-1401-4183-8D51-A4C7B1E403EEtext_name" font-size="12" x="565.7948210875204" y="161.7739629769019" oryx:edgePosition="startTop" stroke-width="0pt" letter-spacing="-0.01px" fill="#000000" text-anchor="start" transform="rotate(0.8134756738128885 551.7948210875204 175.7739629769019)" visibility="inherit" oryx:fontSize="12"><tspan x="565.7948210875204" y="161.7739629769019" dy="0" id="ext-gen4187">Yes</tspan></text></g><g class="children" style="overflow:hidden"/><g class="edge"/></g><g class="controls"><g class="dockers"/><g class="magnets"/></g></g><g id="_05A51740-B5DA-4397-A047-5BC6950B843D" bpmn2nodeid="_AEEEB0E2-785F-4EFD-86F1-F7F234C3928A"><g class="stencils"><g class="me"><g pointer-events="painted" bpmn2nodeid="_AEEEB0E2-785F-4EFD-86F1-F7F234C3928A"><path id="_05A51740-B5DA-4397-A047-5BC6950B843D_1" d="M532.4507153684414 195.95312209683365L532.0981127565586 342.2832060281663 " stroke="#000000" fill="none" stroke-width="2" stroke-linecap="round" stroke-linejoin="round" marker-start="url(#_05A51740-B5DA-4397-A047-5BC6950B843Dstart)" marker-end="url(#_05A51740-B5DA-4397-A047-5BC6950B843Dend)"/></g><text id="_05A51740-B5DA-4397-A047-5BC6950B843Dtext_name" font-size="12" x="518.4507153684414" y="181.95312209683365" oryx:edgePosition="startTop" stroke-width="0pt" letter-spacing="-0.01px" fill="#000000" text-anchor="end" transform="rotate(-89.86193814790414 532.4507153684414 195.95312209683365)" visibility="inherit" oryx:fontSize="12"><tspan x="518.4507153684414" y="181.95312209683365" dy="0" id="ext-gen4002">No</tspan></text></g><g class="children" style="overflow:hidden"/><g class="edge"/></g><g class="controls"><g class="dockers"/><g class="magnets"/></g></g><g id="_5AC1FF80-783F-4F40-A929-45B0257BAB9B" bpmn2nodeid="_B107F7EA-DFD9-449B-A5D2-6CD4FD68F92A"><g class="stencils"><g class="me"><g pointer-events="painted" bpmn2nodeid="_B107F7EA-DFD9-449B-A5D2-6CD4FD68F92A"><path id="_5AC1FF80-783F-4F40-A929-45B0257BAB9B_1" d="M582.6640625 383L680.62890625 383 " stroke="#000000" fill="none" stroke-width="2" stroke-linecap="round" stroke-linejoin="round" marker-start="url(#_5AC1FF80-783F-4F40-A929-45B0257BAB9Bstart)" marker-end="url(#_5AC1FF80-783F-4F40-A929-45B0257BAB9Bend)"/></g><text id="_5AC1FF80-783F-4F40-A929-45B0257BAB9Btext_name" font-size="12" x="596.6640625" y="369" oryx:edgePosition="startTop" stroke-width="0pt" letter-spacing="-0.01px" fill="#000000" text-anchor="start" transform="rotate(360 582.6640625 383)" visibility="inherit" oryx:fontSize="12"/></g><g class="children" style="overflow:hidden"/><g class="edge"/></g><g class="controls"><g class="dockers"/><g class="magnets"/></g></g></g><text id="_AA4CAC16-A582-4F31-8578-B3215331C312" style="stroke-width:1;fill:rgb(177,194,214);font-family:arial;font-weight:bold" font-size="12" onclick="ORYX.Plugins.CanvasTitle.openTextualAnalysis()" onmouseover="ORYX.Plugins.CanvasTitle.addToolTip('_AA4CAC16-A582-4F31-8578-B3215331C312')" transform="translate(10, 20)">KycDueDiligenceProcess v.1.0 (commercial-client-onboarding.KycDueDiligenceProcess)</text></g></g></svg>